<?xml version="1.0" encoding="UTF-8"?>
<!-- Generator: visioncortex VTracer 0.6.2 -->
<svg version="1.1" xmlns="http://www.w3.org/2000/svg" width="1280" height="719">
<path d="M0 0 C422.4 0 844.8 0 1280 0 C1280 237.27 1280 474.54 1280 719 C857.6 719 435.2 719 0 719 C0 481.73 0 244.46 0 0 Z " fill="#FBFBFB" transform="translate(0,0)"/>
<path d="M0 0 C7.91887273 6.81391374 12.83600697 13.03487102 13.92578125 23.62890625 C14.24759759 33.36808495 11.65105521 41.57759176 5.6875 49.3125 C0.51099053 54.65822672 -4.96386334 59.40701846 -11.3125 63.3125 C-11.9725 63.3125 -12.6325 63.3125 -13.3125 63.3125 C-13.3125 64.3025 -13.3125 65.2925 -13.3125 66.3125 C-12.45881836 66.67504883 -12.45881836 66.67504883 -11.58789062 67.04492188 C-8.86981986 68.55910894 -7.07236418 70.360585 -4.90625 72.59375 C-4.07996094 73.43550781 -3.25367188 74.27726562 -2.40234375 75.14453125 C-0.67578125 76.92317708 1.05078125 78.70182292 2.77734375 80.48046875 C3.60363281 81.32222656 4.42992187 82.16398437 5.28125 83.03125 C6.03083984 83.80404297 6.78042969 84.57683594 7.55273438 85.37304688 C9.54034501 87.17880841 11.23170166 88.26955054 13.6875 89.3125 C17.54714967 81.32793265 20.83069601 73.42576009 23.609375 65.015625 C24.6875 62.3125 24.6875 62.3125 26.6875 61.3125 C28.71982634 61.22722372 30.75497006 61.20533865 32.7890625 61.21484375 C34.00078125 61.21806641 35.2125 61.22128906 36.4609375 61.22460938 C37.73195313 61.23298828 39.00296875 61.24136719 40.3125 61.25 C41.59125 61.25451172 42.87 61.25902344 44.1875 61.26367188 C47.35421292 61.27548797 50.52083356 61.29196185 53.6875 61.3125 C54.8760029 66.17294471 54.0158472 69.45596023 52.3125 74.0625 C51.9112793 75.16936157 51.9112793 75.16936157 51.50195312 76.29858398 C47.19293434 87.73563975 41.51311231 98.88163388 33.6875 108.3125 C35.30446913 112.39388593 38.23042748 115.11827335 41.3125 118.125 C42.1178418 118.92176147 42.1178418 118.92176147 42.93945312 119.73461914 C46.52578149 123.25598557 50.23667916 126.58773808 54.0625 129.84765625 C56.22958072 131.80115449 58.00735199 133.93229032 59.6875 136.3125 C59.6875 136.6425 59.6875 136.9725 59.6875 137.3125 C54.8496304 137.486648 50.01361654 137.61307219 45.17333984 137.69702148 C43.53011262 137.73204214 41.88710066 137.77967701 40.24462891 137.84057617 C24.83427277 138.39729517 24.83427277 138.39729517 19.6875 133.91015625 C18 132.02368164 18 132.02368164 16.6875 130.3125 C16.0275 129.6525 15.3675 128.9925 14.6875 128.3125 C11.13893357 128.70245235 8.2321772 130.52427066 5.125 132.1875 C-12.39794782 141.09856005 -32.58269818 141.3326514 -51.3125 136.3125 C-60.74399026 132.85639686 -70.80791229 126.30906898 -75.3984375 117.14453125 C-80.59410367 105.85040586 -80.66595667 95.13715727 -76.55859375 83.3125 C-72.2137922 72.85228811 -64.61737383 66.51574922 -55.3125 60.3125 C-56.41547024 57.10385931 -57.84909305 54.39081838 -59.6875 51.5625 C-65.72504204 42.13107338 -68.2962452 33.53550867 -67.3125 22.3125 C-65.10231607 13.49702353 -60.40486778 6.02513713 -52.75 1.0625 C-35.99248565 -8.05079904 -17.07263344 -8.6973793 0 0 Z " fill="#000405" transform="translate(616.3125,202.6875)"/>
<path d="M0 0 C1.03578186 -0.00953201 2.07156372 -0.01906403 3.13873291 -0.02888489 C4.26567566 -0.02797348 5.39261841 -0.02706207 6.55371094 -0.02612305 C8.29754059 -0.03255074 8.29754059 -0.03255074 10.07659912 -0.03910828 C12.54812977 -0.04486492 15.01967737 -0.04534209 17.49121094 -0.04101562 C21.23109997 -0.03788943 24.97017179 -0.06118036 28.70996094 -0.08666992 C51.9698428 -0.14830617 51.9698428 -0.14830617 63.03808594 3.2746582 C63.97080322 3.5543042 64.90352051 3.8339502 65.86450195 4.12207031 C74.7102346 6.96015417 82.54786401 13.89851688 87.07714844 21.9934082 C91.83467997 33.28771071 92.74941697 45.95368825 89.13964844 57.67700195 C85.35072089 66.6118843 76.75560459 75.04043486 68.03808594 79.2746582 C67.04808594 79.2746582 66.05808594 79.2746582 65.03808594 79.2746582 C68.2346629 85.07117649 71.81383251 90.53529617 75.52636719 96.01293945 C76.14779099 96.93374802 76.76921478 97.85455658 77.4094696 98.80326843 C78.72030292 100.7446315 80.03232242 102.68519411 81.34545898 104.625 C83.33607924 107.56572758 85.32314973 110.50882697 87.30957031 113.45239258 C88.58996106 115.34771554 89.87055356 117.24290223 91.15136719 119.13793945 C91.73702957 120.00493973 92.32269196 120.87194 92.92610168 121.76521301 C96.45905375 126.98241415 100.05947162 132.14015525 103.74894714 137.24821472 C105.03808594 139.2746582 105.03808594 139.2746582 105.03808594 141.2746582 C100.71486133 141.39865856 96.39258992 141.48918076 92.06811523 141.54931641 C90.59853068 141.57439464 89.12907006 141.60846676 87.65991211 141.65185547 C85.54216913 141.71281319 83.42608018 141.74093136 81.30761719 141.76293945 C80.0350708 141.78912354 78.76252441 141.81530762 77.45141602 141.84228516 C72.39649256 141.00166596 70.45520151 138.25144712 67.57177734 134.22924805 C66.98662354 133.24239014 66.98662354 133.24239014 66.38964844 132.2355957 C65.94564697 131.49639893 65.50164551 130.75720215 65.04418945 129.99560547 C64.58842529 129.22144287 64.13266113 128.44728027 63.66308594 127.6496582 C62.68593866 126.02032155 61.7080771 124.39141306 60.72949219 122.76293945 C60.2630127 121.98257324 59.7965332 121.20220703 59.31591797 120.39819336 C57.27052053 116.99909765 55.14534195 113.65816489 52.95214844 110.3527832 C51.32363597 107.73386927 49.87656969 105.10766608 48.43652344 102.3840332 C44.18384806 93.60376363 44.18384806 93.60376363 37.14257812 87.40698242 C32.97743631 86.58455926 29.08198422 87.14398194 25.03808594 88.2746582 C23.38510685 89.92763729 23.87116411 91.88502376 23.83276367 94.16162109 C23.81281845 95.20262466 23.79287323 96.24362823 23.77232361 97.31617737 C23.74725487 99.01459023 23.74725487 99.01459023 23.72167969 100.74731445 C23.70089859 101.90009384 23.68011749 103.05287323 23.65870667 104.24058533 C23.5930863 107.93937977 23.53426839 111.6382478 23.47558594 115.3371582 C23.43241258 117.83781699 23.3887987 120.33846822 23.34472656 122.83911133 C23.23739226 128.98421482 23.13564951 135.12939224 23.03808594 141.2746582 C18.92636034 141.29931566 14.81466316 141.31749779 10.70288086 141.32958984 C9.30313365 141.334629 7.90339174 141.34146037 6.50366211 141.35009766 C4.49562817 141.3621814 2.48755636 141.36735627 0.47949219 141.37231445 C-1.3350647 141.38016968 -1.3350647 141.38016968 -3.1862793 141.38818359 C-5.96191406 141.2746582 -5.96191406 141.2746582 -6.96191406 140.2746582 C-7.06264356 138.49501264 -7.0926813 136.71133981 -7.09562683 134.92884827 C-7.09989182 133.76921066 -7.1041568 132.60957306 -7.10855103 131.41479492 C-7.10809784 130.13113037 -7.10764465 128.84746582 -7.10717773 127.52490234 C-7.11016769 126.16841031 -7.11356984 124.81191913 -7.11735535 123.45542908 C-7.12621623 119.76125242 -7.12853433 116.0670989 -7.12917113 112.37291265 C-7.13011852 109.29372678 -7.13379484 106.21454635 -7.13734323 103.13536257 C-7.14549574 95.87327929 -7.14792674 88.61120842 -7.1472168 81.34912109 C-7.1466158 73.84704229 -7.15717022 66.34503534 -7.17296046 58.84297472 C-7.18601703 52.41155058 -7.19140149 45.98014997 -7.19076139 39.54871267 C-7.19050584 35.70331293 -7.19338796 31.857977 -7.20393944 28.01259041 C-7.21358884 24.39701309 -7.21372149 20.781561 -7.20642281 17.16597939 C-7.20487098 15.20066348 -7.21324571 13.23534768 -7.22186279 11.27005005 C-7.2176683 10.10759262 -7.21347382 8.94513519 -7.20915222 7.74745178 C-7.20969699 6.73293473 -7.21024176 5.71841768 -7.21080303 4.67315769 C-6.72058005 -0.05103544 -4.0905888 0.0206511 0 0 Z " fill="#000405" transform="translate(150.9619140625,198.725341796875)"/>
<path d="M0 0 C1.4282618 0.00031703 2.85654759 0.01163717 4.28466797 0.03173828 C5.41242142 0.03598312 5.41242142 0.03598312 6.56295776 0.04031372 C8.96775125 0.05152204 11.37217428 0.07662726 13.77685547 0.10205078 C15.40575635 0.11207976 17.03466305 0.12120576 18.66357422 0.12939453 C22.65981103 0.15146343 26.65577041 0.18599728 30.65185547 0.22705078 C33.81594744 7.01089804 36.42191387 13.91803118 38.90185547 20.97705078 C39.55361935 22.81766988 40.20539595 24.65828449 40.85746765 26.49879456 C41.5870098 28.55937625 42.31497994 30.62050969 43.04296875 32.68164062 C44.79750814 37.64422351 46.56629899 42.60169288 48.33544922 47.55908203 C55.86786734 68.67593876 63.33134891 89.81541578 70.69165039 110.99291992 C70.98517899 111.83706955 71.27870758 112.68121918 71.58113098 113.5509491 C72.14795813 115.18161235 72.71421062 116.81247549 73.27983093 118.44355774 C74.55750872 122.12033404 75.84977045 125.79017918 77.18554688 129.44628906 C77.42171219 130.09493423 77.6578775 130.74357941 77.90119934 131.41188049 C78.52903888 133.12927252 79.16306542 134.84439927 79.79760742 136.55932617 C80.65185547 139.22705078 80.65185547 139.22705078 80.65185547 142.22705078 C70.42185547 142.22705078 60.19185547 142.22705078 49.65185547 142.22705078 C45.15129057 132.10077976 45.15129057 132.10077976 43.98388672 127.89501953 C43.73058594 126.99460937 43.47728516 126.09419922 43.21630859 125.16650391 C42.96816406 124.25835937 42.72001953 123.35021484 42.46435547 122.41455078 C42.20460938 121.48707031 41.94486328 120.55958984 41.67724609 119.60400391 C40.62170818 115.82097783 39.60450689 112.03765647 38.65185547 108.22705078 C22.15185547 108.55705078 5.65185547 108.88705078 -11.34814453 109.22705078 C-13.08279056 113.85277353 -14.73562429 118.27147938 -16.13720703 122.96923828 C-16.43884766 123.97212891 -16.74048828 124.97501953 -17.05126953 126.00830078 C-17.35548828 127.02923828 -17.65970703 128.05017578 -17.97314453 129.10205078 C-18.58871477 131.16243049 -19.20582388 133.22235126 -19.82470703 135.28173828 C-20.0936377 136.1839209 -20.36256836 137.08610352 -20.63964844 138.015625 C-21.34814453 140.22705078 -21.34814453 140.22705078 -22.34814453 142.22705078 C-37.69314453 142.72205078 -37.69314453 142.72205078 -53.34814453 143.22705078 C-54.66095898 139.28860743 -53.72131151 137.78323793 -52.31298828 133.90283203 C-52.08368118 133.26227875 -51.85437408 132.62172546 -51.61811829 131.96176147 C-50.84880887 129.81798213 -50.06700877 127.67896273 -49.28564453 125.53955078 C-48.73543068 124.01169324 -48.18629975 122.48344533 -47.63818359 120.95483398 C-46.77132678 118.53768204 -45.90377723 116.12080187 -45.0329895 113.70506287 C-42.1174625 105.6141857 -39.28334264 97.49568601 -36.45513916 89.3739624 C-30.9940888 73.70178633 -25.46652821 58.05332843 -19.91064453 42.41455078 C-19.58157104 41.48718109 -19.25249756 40.5598114 -18.91345215 39.6043396 C-17.04393948 34.3375209 -15.16680683 29.07353454 -13.27716064 23.81390381 C-12.64070608 22.04169082 -12.00581437 20.26891601 -11.37225342 18.4956665 C-10.42090996 15.83754795 -9.46179721 13.18236041 -8.50048828 10.52783203 C-8.2125087 9.71992722 -7.92452911 8.9120224 -7.62782288 8.07963562 C-4.8002188 0.32552162 -4.8002188 0.32552162 0 0 Z " fill="#000405" transform="translate(869.34814453125,197.77294921875)"/>
<path d="M0 0 C1.11431396 0.00410889 2.22862793 0.00821777 3.37670898 0.01245117 C4.58391602 0.01438477 5.79112305 0.01631836 7.03491211 0.01831055 C8.30141602 0.03055664 9.56791992 0.04280273 10.87280273 0.05541992 C12.77835938 0.05638672 12.77835938 0.05638672 14.72241211 0.05737305 C24.1702022 0.10281939 24.1702022 0.10281939 25.31030273 1.24291992 C25.4143304 4.13695621 25.45391278 7.00790877 25.45214844 9.90258789 C25.45736008 11.2661869 25.45736008 11.2661869 25.462677 12.65733337 C25.47005085 14.6402309 25.47538751 16.62313677 25.47896767 18.60604477 C25.48612076 21.75127623 25.50178218 24.89635055 25.52030945 28.04153442 C25.57280809 36.98754616 25.62068572 45.9334765 25.63623047 54.87963867 C25.64635435 60.34691257 25.67580001 65.81379813 25.71755028 71.28091812 C25.72981259 73.35952938 25.73499031 75.43819566 25.73275185 77.51684189 C25.64677924 94.66295084 25.64677924 94.66295084 32.24780273 110.24291992 C38.33418786 116.14486914 46.10089508 117.24072762 54.37280273 117.49291992 C62.49046176 116.977513 69.35526818 115.96530538 75.43530273 110.24291992 C82.05076101 99.65818668 80.75111766 86.66979755 80.75170898 74.67651367 C80.76349392 72.58951395 80.77686086 70.50252261 80.79173279 68.4155426 C80.82773953 62.95348739 80.84807499 57.49150671 80.86328125 52.02935791 C80.88822523 43.25595224 80.92762152 34.48271082 80.98518181 25.7094593 C81.00153829 22.64598373 81.00528931 19.58266367 81.00819397 16.51914978 C81.01796323 14.65420252 81.02822534 12.78925776 81.0390625 10.92431641 C81.03650955 10.06981903 81.0339566 9.21532166 81.03132629 8.33493042 C81.08280973 2.47041293 81.08280973 2.47041293 83.31030273 0.24291992 C86 0 86 0 89.37670898 0.01245117 C90.58391602 0.01438477 91.79112305 0.01631836 93.03491211 0.01831055 C94.30141602 0.03055664 95.56791992 0.04280273 96.87280273 0.05541992 C98.77835938 0.05638672 98.77835938 0.05638672 100.72241211 0.05737305 C110.1702022 0.10281939 110.1702022 0.10281939 111.31030273 1.24291992 C111.42161792 4.17700151 111.46770671 7.08775445 111.47143555 10.02270508 C111.4788829 11.40592705 111.4788829 11.40592705 111.48648071 12.8170929 C111.50116147 15.88873022 111.50791893 18.96031567 111.51342773 22.03198242 C111.51918035 24.16938274 111.52493807 26.30678305 111.53070068 28.44418335 C111.54123152 32.94187664 111.54705855 37.43955197 111.55053711 41.93725586 C111.5559848 47.66530068 111.57992332 53.3931033 111.60850906 59.12107277 C111.62726858 63.54640354 111.63234838 67.97167798 111.63387299 72.39704514 C111.63687703 74.50588663 111.64482836 76.61472768 111.65805817 78.72352982 C111.84250994 110.42371486 111.84250994 110.42371486 103.31030273 122.24291992 C102.81788086 122.92741211 102.32545898 123.6119043 101.81811523 124.31713867 C92.95271911 135.45190653 79.45131496 140.94895693 65.66186523 142.92651367 C46.35985249 144.74873166 28.40877127 142.63269696 12.43530273 130.80541992 C2.29040211 122.38185623 -2.48688145 112.20876251 -4.68969727 99.24291992 C-4.94974782 95.94106884 -4.96386631 92.65951931 -4.94848633 89.34863281 C-4.95199097 88.40443481 -4.95549561 87.46023682 -4.95910645 86.48742676 C-4.96784081 83.39673302 -4.96210744 80.30627183 -4.95532227 77.21557617 C-4.95667051 75.05846615 -4.95861237 72.90135642 -4.96112061 70.74424744 C-4.96405993 66.23978766 -4.95980965 61.73540752 -4.95043945 57.23095703 C-4.93899755 51.44809481 -4.94564178 45.66541727 -4.95758438 39.88256168 C-4.96479427 35.43632095 -4.9625199 30.9901244 -4.9573288 26.54388237 C-4.95599237 24.41035376 -4.95763978 22.27682116 -4.9622879 20.1432972 C-4.96734402 17.1725707 -4.95965801 14.20214898 -4.94848633 11.23144531 C-4.95253479 10.34575363 -4.95658325 9.46006195 -4.96075439 8.54753113 C-4.90403976 0.44290819 -4.90403976 0.44290819 0 0 Z " fill="#000405" transform="translate(984.689697265625,198.757080078125)"/>
<path d="M0 0 C0.72059601 0.00561951 1.44119202 0.01123901 2.18362427 0.01702881 C2.94308853 0.01513046 3.7025528 0.01323212 4.48503113 0.01127625 C7.00177245 0.00756377 9.51822685 0.01827837 12.03494263 0.02947998 C13.77846747 0.03067152 15.52199296 0.031125 17.26551819 0.03086853 C20.92152925 0.03243416 24.5774425 0.0407305 28.23342896 0.05413818 C32.93030205 0.07114072 37.62706767 0.07495222 42.32396793 0.074193 C45.92435236 0.07446432 49.52471308 0.07993911 53.12508965 0.08719444 C54.85752622 0.0903864 56.5899655 0.09234974 58.32240486 0.09308815 C60.73843126 0.09524545 63.1543414 0.10397596 65.57034302 0.11468506 C66.29296326 0.11423187 67.0155835 0.11377869 67.76010132 0.11331177 C72.69781134 0.14547369 72.69781134 0.14547369 73.81228638 1.25994873 C73.81228638 8.84994873 73.81228638 16.43994873 73.81228638 24.25994873 C57.31228638 24.58994873 40.81228638 24.91994873 23.81228638 25.25994873 C23.81228638 34.82994873 23.81228638 44.39994873 23.81228638 54.25994873 C38.99228638 54.58994873 54.17228638 54.91994873 69.81228638 55.25994873 C71.09090252 57.81718103 70.92565247 59.62731975 70.90994263 62.48651123 C70.90510864 64.03338623 70.90510864 64.03338623 70.900177 65.61151123 C70.88760864 67.23186279 70.88760864 67.23186279 70.87478638 68.88494873 C70.87027466 69.97291748 70.86576294 71.06088623 70.8611145 72.18182373 C70.84930414 74.87458662 70.83283416 77.56724061 70.81228638 80.25994873 C70.23821548 80.2702562 69.66414459 80.28056366 69.07267761 80.29118347 C63.11962975 80.39902307 57.16674022 80.5136385 51.21389771 80.63226318 C48.98964741 80.67568461 46.76536223 80.71735418 44.54104614 80.75726318 C41.35140442 80.81479179 38.16193958 80.87853557 34.97244263 80.94354248 C33.97141006 80.96025497 32.9703775 80.97696747 31.93901062 80.9941864 C31.01813156 81.01413162 30.0972525 81.03407684 29.14846802 81.05462646 C28.33350357 81.07017075 27.51853912 81.08571503 26.67887878 81.10173035 C24.79819519 81.05908736 24.79819519 81.05908736 23.81228638 82.25994873 C23.72384845 84.708253 23.69699886 87.12815472 23.71463013 89.57635498 C23.71675255 90.67293678 23.71675255 90.67293678 23.71891785 91.79167175 C23.72453229 94.13530505 23.73708716 96.47884412 23.74978638 98.82244873 C23.75479952 100.40773381 23.75936275 101.99302039 23.76345825 103.57830811 C23.77450641 107.47222483 23.79178066 111.36607078 23.81228638 115.25994873 C24.4239415 115.2702562 25.03559662 115.28056366 25.66578674 115.29118347 C32.00810953 115.39901618 38.35028351 115.51363215 44.69241333 115.63226318 C47.06217345 115.67568683 49.43196638 115.71735622 51.80178833 115.75726318 C55.19991971 115.81478641 58.5978848 115.87853176 61.99588013 115.94354248 C63.06253403 115.96025497 64.12918793 115.97696747 65.22816467 115.9941864 C66.20910599 116.01413162 67.1900473 116.03407684 68.20071411 116.05462646 C69.5031028 116.07794289 69.5031028 116.07794289 70.83180237 116.10173035 C72.81228638 116.25994873 72.81228638 116.25994873 73.81228638 117.25994873 C73.89954861 119.04066119 73.91927679 120.82478013 73.90994263 122.60760498 C73.90510864 124.22698975 73.90510864 124.22698975 73.900177 125.87908936 C73.88760864 127.58355225 73.88760864 127.58355225 73.87478638 129.32244873 C73.87027466 130.46262451 73.86576294 131.60280029 73.8611145 132.77752686 C73.84928385 135.60505224 73.83280047 138.43247513 73.81228638 141.25994873 C63.39885713 141.28307232 52.98543394 141.3008639 42.57198429 141.3117609 C37.73711811 141.3169897 32.90226943 141.32408727 28.06741333 141.33538818 C23.40551518 141.3462172 18.74363392 141.35222559 14.08172417 141.35482597 C12.29904349 141.3566802 10.51636379 141.36030076 8.73369026 141.36567879 C6.24562677 141.37288942 3.75763395 141.37393966 1.26956177 141.37347412 C0.52509796 141.3770694 -0.21936584 141.38066467 -0.98638916 141.3843689 C-6.07366146 141.37400089 -6.07366146 141.37400089 -7.18771362 140.25994873 C-7.28844312 138.48030316 -7.31848086 136.69663034 -7.32142639 134.91413879 C-7.32569138 133.75450119 -7.32995636 132.59486359 -7.33435059 131.40008545 C-7.3338974 130.1164209 -7.33344421 128.83275635 -7.33297729 127.51019287 C-7.33596725 126.15370084 -7.3393694 124.79720965 -7.34315491 123.4407196 C-7.35201579 119.74654295 -7.35433389 116.05238943 -7.35497069 112.35820317 C-7.35591808 109.2790173 -7.3595944 106.19983688 -7.36314279 103.12065309 C-7.3712953 95.85856982 -7.3737263 88.59649895 -7.37301636 81.33441162 C-7.37241536 73.83233281 -7.38296978 66.33032587 -7.39876002 58.82826525 C-7.41181659 52.39684111 -7.41720105 45.9654405 -7.41656095 39.5340032 C-7.4163054 35.68860346 -7.41918753 31.84326753 -7.429739 27.99788094 C-7.4393884 24.38230362 -7.43952105 20.76685153 -7.43222237 17.15126991 C-7.43067054 15.18595401 -7.43904527 13.2206382 -7.44766235 11.25534058 C-7.44346786 10.09288315 -7.43927338 8.93042572 -7.43495178 7.73274231 C-7.43549655 6.71822526 -7.43604132 5.70370821 -7.43660259 4.65844822 C-6.93780893 -0.14833913 -4.19335941 0.02674693 0 0 Z " fill="#000405" transform="translate(294.1877136230469,198.74005126953125)"/>
<path d="M0 0 C2.03051349 -0.03440316 4.05447159 -0.12210189 6.08325195 -0.21044922 C7.36651367 -0.22720703 8.64977539 -0.24396484 9.97192383 -0.26123047 C11.14795166 -0.29039551 12.32397949 -0.31956055 13.53564453 -0.34960938 C17.72324561 0.88119177 18.56207087 2.60818392 20.59663391 6.32714844 C20.97184677 7.07399902 21.34705963 7.82084961 21.73364258 8.59033203 C22.08939865 9.2614502 22.44515472 9.93256836 22.81169128 10.62402344 C23.88938631 12.68800964 24.92305151 14.76945771 25.94848633 16.85986328 C26.32671036 17.62151291 26.70493439 18.38316254 27.09461975 19.16789246 C28.29068199 21.57763624 29.4813175 23.99000335 30.67114258 26.40283203 C37.27382488 43.47920854 37.27382488 43.47920854 47.73364258 56.59033203 C50.10966278 51.98431706 52.48415988 47.37752102 54.85717773 42.7699585 C55.68895589 41.1551227 56.52098562 39.54041646 57.35327148 37.92584229 C62.63868479 27.67017946 67.90432279 17.40891479 72.91479492 7.01513672 C75.51875543 1.6977756 75.51875543 1.6977756 77.73364258 0.59033203 C82.37484216 0.34514747 87.02420102 0.40512682 91.67114258 0.40283203 C92.97245117 0.39058594 94.27375977 0.37833984 95.61450195 0.36572266 C96.8590918 0.36378906 98.10368164 0.36185547 99.38598633 0.35986328 C100.53059326 0.35575439 101.6752002 0.35164551 102.85449219 0.34741211 C105.73364258 0.59033203 105.73364258 0.59033203 108.73364258 2.59033203 C108.41838623 3.14043945 108.10312988 3.69054687 107.77832031 4.25732422 C100.07745653 17.72243995 92.62024529 31.30425373 85.32521057 44.99220276 C81.21485664 52.70413303 77.05032028 60.38491813 72.85253906 68.04956055 C71.95095897 69.69623184 71.06399746 71.35098121 70.19091797 73.01293945 C68.73364258 75.59033203 68.73364258 75.59033203 66.86816406 78.14624023 C59.2377167 89.53805272 60.732333 102.69949418 60.79614258 115.90283203 C60.78301628 118.39699122 60.76676782 120.89113604 60.74731445 123.38525391 C60.70671614 129.45391588 60.70482209 135.52162335 60.73364258 141.59033203 C56.76433268 141.61499084 52.79505224 141.63317226 48.82568359 141.64526367 C47.47443872 141.6503026 46.12319932 141.6571338 44.77197266 141.66577148 C42.83343824 141.67785622 40.89486458 141.68303031 38.95629883 141.68798828 C37.78848877 141.6932251 36.62067871 141.69846191 35.41748047 141.70385742 C32.73364258 141.59033203 32.73364258 141.59033203 31.73364258 140.59033203 C31.68385882 139.03846721 31.70335984 137.48432078 31.75048828 135.93237305 C31.78741539 134.43534096 31.78741539 134.43534096 31.8250885 132.9080658 C31.85291916 131.81450272 31.88074982 130.72093964 31.90942383 129.59423828 C33.0638511 94.38326318 33.0638511 94.38326318 18.65454102 63.31201172 C15.32265284 58.59113101 12.77540638 53.45586582 10.10864258 48.34033203 C9.04616951 46.36945663 7.97980396 44.40067432 6.90942383 42.43408203 C6.38687012 41.47115234 5.86431641 40.50822266 5.32592773 39.51611328 C3.71075008 36.54826767 2.08865962 33.58430768 0.46411133 30.62158203 C-9.71922652 12.04357785 -9.71922652 12.04357785 -14.26635742 2.59033203 C-10.63403726 -1.04198813 -4.92176967 0.05811946 0 0 Z " fill="#000405" transform="translate(408.266357421875,198.40966796875)"/>
<path d="M0 0 C0.72059601 0.00561951 1.44119202 0.01123901 2.18362427 0.01702881 C2.94308853 0.01513046 3.7025528 0.01323212 4.48503113 0.01127625 C7.00177245 0.00756377 9.51822685 0.01827837 12.03494263 0.02947998 C13.77846747 0.03067152 15.52199296 0.031125 17.26551819 0.03086853 C20.92152925 0.03243416 24.5774425 0.0407305 28.23342896 0.05413818 C32.93030205 0.07114072 37.62706767 0.07495222 42.32396793 0.074193 C45.92435236 0.07446432 49.52471308 0.07993911 53.12508965 0.08719444 C54.85752622 0.0903864 56.5899655 0.09234974 58.32240486 0.09308815 C60.73843126 0.09524545 63.1543414 0.10397596 65.57034302 0.11468506 C66.29296326 0.11423187 67.0155835 0.11377869 67.76010132 0.11331177 C72.69781134 0.14547369 72.69781134 0.14547369 73.81228638 1.25994873 C73.81228638 8.84994873 73.81228638 16.43994873 73.81228638 24.25994873 C48.56728638 24.75494873 48.56728638 24.75494873 22.81228638 25.25994873 C22.48228638 36.80994873 22.15228638 48.35994873 21.81228638 60.25994873 C25.19349731 60.32053467 28.57470825 60.38112061 32.05838013 60.44354248 C35.31825115 60.50527762 38.57808555 60.56868776 41.83792114 60.63226318 C44.11067474 60.67568538 46.3834625 60.71735489 48.65628052 60.75726318 C51.9154187 60.81478992 55.17438369 60.87853425 58.43338013 60.94354248 C59.45628647 60.96025497 60.47919281 60.97696747 61.53309631 60.9941864 C62.94444603 61.02410423 62.94444603 61.02410423 64.38430786 61.05462646 C65.2170372 61.07017075 66.04976654 61.08571503 66.9077301 61.10173035 C68.81228638 61.25994873 68.81228638 61.25994873 69.81228638 62.25994873 C69.81228638 69.84994873 69.81228638 77.43994873 69.81228638 85.25994873 C54.30228638 85.58994873 38.79228638 85.91994873 22.81228638 86.25994873 C22.48228638 104.40994873 22.15228638 122.55994873 21.81228638 141.25994873 C17.21291138 141.28057373 12.61353638 141.30119873 7.87478638 141.32244873 C6.42209351 141.33155273 4.96940063 141.34065674 3.47268677 141.35003662 C2.3382312 141.35253418 1.20377563 141.35503174 0.03494263 141.35760498 C-1.13286743 141.3628418 -2.30067749 141.36807861 -3.50387573 141.37347412 C-6.18771362 141.25994873 -6.18771362 141.25994873 -7.18771362 140.25994873 C-7.28844312 138.48030316 -7.31848086 136.69663034 -7.32142639 134.91413879 C-7.32569138 133.75450119 -7.32995636 132.59486359 -7.33435059 131.40008545 C-7.3338974 130.1164209 -7.33344421 128.83275635 -7.33297729 127.51019287 C-7.33596725 126.15370084 -7.3393694 124.79720965 -7.34315491 123.4407196 C-7.35201579 119.74654295 -7.35433389 116.05238943 -7.35497069 112.35820317 C-7.35591808 109.2790173 -7.3595944 106.19983688 -7.36314279 103.12065309 C-7.3712953 95.85856982 -7.3737263 88.59649895 -7.37301636 81.33441162 C-7.37241536 73.83233281 -7.38296978 66.33032587 -7.39876002 58.82826525 C-7.41181659 52.39684111 -7.41720105 45.9654405 -7.41656095 39.5340032 C-7.4163054 35.68860346 -7.41918753 31.84326753 -7.429739 27.99788094 C-7.4393884 24.38230362 -7.43952105 20.76685153 -7.43222237 17.15126991 C-7.43067054 15.18595401 -7.43904527 13.2206382 -7.44766235 11.25534058 C-7.44346786 10.09288315 -7.43927338 8.93042572 -7.43495178 7.73274231 C-7.43549655 6.71822526 -7.43604132 5.70370821 -7.43660259 4.65844822 C-6.93780893 -0.14833913 -4.19335941 0.02674693 0 0 Z " fill="#000405" transform="translate(30.187713623046875,198.74005126953125)"/>
<path d="M0 0 C1.07241943 0.00410889 2.14483887 0.00821777 3.24975586 0.01245117 C4.4118457 0.01438477 5.57393555 0.01631836 6.77124023 0.01831055 C7.99004883 0.03055664 9.20885742 0.04280273 10.46459961 0.05541992 C12.29861328 0.05638672 12.29861328 0.05638672 14.16967773 0.05737305 C23.26198905 0.10280936 23.26198905 0.10280936 24.40209961 1.24291992 C24.50989816 2.722648 24.54891817 4.20744964 24.56031799 5.6910553 C24.57010681 6.65164352 24.57989563 7.61223175 24.58998108 8.60192871 C24.59861427 10.19551208 24.59861427 10.19551208 24.60742188 11.82128906 C24.61732147 12.93334213 24.62722107 14.0453952 24.63742065 15.19114685 C24.66914484 18.8867679 24.69383608 22.58240183 24.71850586 26.27807617 C24.73906597 28.83255864 24.76006217 31.38703763 24.78147888 33.94151306 C24.83113527 39.99050483 24.8763752 46.03951422 24.91950125 52.0885548 C24.96883208 58.97360568 25.02376556 65.85860823 25.07918084 72.74361241 C25.19307564 86.91000318 25.29989827 101.07644032 25.40209961 115.24291992 C26.10145126 115.25322739 26.80080292 115.26353485 27.52134705 115.27415466 C34.09923624 115.37197025 40.67703381 115.4744615 47.25476742 115.58225918 C50.63677083 115.63751794 54.01878285 115.69094248 57.40087891 115.74023438 C61.28549388 115.79692938 65.16995838 115.86149577 69.05444336 115.92651367 C70.27421371 115.94322617 71.49398407 115.95993866 72.75071716 115.97715759 C73.87180374 115.99710281 74.99289032 116.01704803 76.14794922 116.03759766 C77.14056259 116.05314194 78.13317596 116.06868622 79.15586853 116.08470154 C81.40209961 116.24291992 81.40209961 116.24291992 82.40209961 117.24291992 C82.48936184 119.02363238 82.50909002 120.80775132 82.49975586 122.59057617 C82.49492188 124.20996094 82.49492188 124.20996094 82.48999023 125.86206055 C82.47742188 127.56652344 82.47742188 127.56652344 82.46459961 129.30541992 C82.46008789 130.4455957 82.45557617 131.58577148 82.45092773 132.76049805 C82.43909708 135.58802344 82.42261371 138.41544632 82.40209961 141.24291992 C71.20636717 141.26604261 60.01064037 141.28383463 48.81488895 141.29473209 C43.61681846 141.29996109 38.41876425 141.30705902 33.22070312 141.31835938 C28.20867693 141.32918769 23.19666643 141.33519663 18.18462944 141.33779716 C16.26797679 141.33965152 14.35132504 141.34327232 12.43467903 141.34864998 C9.75981889 141.35585967 7.08502447 141.3569109 4.41015625 141.35644531 C3.60958801 141.36004059 2.80901978 141.36363586 1.98419189 141.36734009 C-3.48384823 141.35697208 -3.48384823 141.35697208 -4.59790039 140.24291992 C-4.69862989 138.46327435 -4.72866763 136.67960153 -4.73161316 134.89710999 C-4.73587814 133.73747238 -4.74014313 132.57783478 -4.74453735 131.38305664 C-4.74408417 130.09939209 -4.74363098 128.81572754 -4.74316406 127.49316406 C-4.74615402 126.13667203 -4.74955617 124.78018085 -4.75334167 123.4236908 C-4.76220256 119.72951414 -4.76452066 116.03536062 -4.76515746 112.34117436 C-4.76610485 109.26198849 -4.76978117 106.18280807 -4.77332956 103.10362428 C-4.78148206 95.84154101 -4.78391307 88.57947014 -4.78320312 81.31738281 C-4.78260212 73.815304 -4.79315655 66.31329706 -4.80894679 58.81123644 C-4.82200336 52.3798123 -4.82738782 45.94841169 -4.82674772 39.51697439 C-4.82649217 35.67157465 -4.82937429 31.82623872 -4.83992577 27.98085213 C-4.84957517 24.36527481 -4.84970781 20.74982272 -4.84240913 17.1342411 C-4.84085731 15.1689252 -4.84923204 13.20360939 -4.85784912 11.23831177 C-4.85365463 10.07585434 -4.84946014 8.91339691 -4.84513855 7.7157135 C-4.84568332 6.70119645 -4.84622808 5.6866794 -4.84678936 4.64141941 C-4.48281856 1.13389646 -3.4762116 0.32504751 0 0 Z " fill="#000405" transform="translate(712.597900390625,198.757080078125)"/>
<path d="M0 0 C3.84717767 2.21582019 5.73725539 5.48967548 7.08984375 9.66015625 C8.07264191 20.22523652 7.23148615 29.85370699 0.33984375 38.34765625 C-6.30717447 45.05958676 -10.99147164 46.5321829 -20.29882812 46.77734375 C-22.52706514 46.85131101 -22.52706514 46.85131101 -25.66015625 47.34765625 C-27.84757639 50.62878645 -28.20458431 52.67849981 -28.78515625 56.53515625 C-28.95273438 57.62183594 -29.1203125 58.70851563 -29.29296875 59.828125 C-29.41414063 60.65957031 -29.5353125 61.49101562 -29.66015625 62.34765625 C-27.68015625 63.00765625 -25.70015625 63.66765625 -23.66015625 64.34765625 C-23.66015625 65.66765625 -23.66015625 66.98765625 -23.66015625 68.34765625 C-30.59015625 69.33765625 -30.59015625 69.33765625 -37.66015625 70.34765625 C-38.55398764 65.87849932 -38.64701799 63.96063045 -37.87158203 59.68701172 C-37.67452667 58.57591034 -37.47747131 57.46480896 -37.27444458 56.32003784 C-37.05368256 55.13032379 -36.83292053 53.94060974 -36.60546875 52.71484375 C-36.38446503 51.48605499 -36.1634613 50.25726624 -35.9357605 48.99124146 C-35.46743465 46.39643971 -34.99581517 43.80252707 -34.51806641 41.20947266 C-33.90605479 37.88753148 -33.30394632 34.56389906 -32.70561409 31.23946953 C-32.13376401 28.06401262 -31.55727072 24.8894044 -30.98046875 21.71484375 C-30.65539841 19.92419998 -30.65539841 19.92419998 -30.32376099 18.09738159 C-30.12040131 16.99258453 -29.91704163 15.88778748 -29.70751953 14.74951172 C-29.52907501 13.77642059 -29.35063049 12.80332947 -29.16677856 11.80075073 C-28.66015625 9.34765625 -28.66015625 9.34765625 -27.66015625 6.34765625 C-29.97015625 5.68765625 -32.28015625 5.02765625 -34.66015625 4.34765625 C-34.33015625 3.35765625 -34.00015625 2.36765625 -33.66015625 1.34765625 C-30.62842344 0.15271651 -27.63556198 0.2427167 -24.41015625 0.28515625 C-22.05890625 0.31609375 -22.05890625 0.31609375 -19.66015625 0.34765625 C-19.99015625 5.62765625 -20.32015625 10.90765625 -20.66015625 16.34765625 C-19.54640625 14.84203125 -18.43265625 13.33640625 -17.28515625 11.78515625 C-6.5333004 -1.60214562 -6.5333004 -1.60214562 0 0 Z " fill="#000405" transform="translate(152.66015625,399.65234375)"/>
<path d="M0 0 C4.28427798 3.06019856 6.60455243 6.75332507 7.625 11.875 C8.48692142 20.09640429 7.35903689 28.84761632 2.66796875 35.7578125 C-2.16488252 41.40574431 -6.38658557 45.30510696 -14.0078125 46.17578125 C-20.39473463 46.48033476 -24.21138214 45.64013802 -29.375 41.875 C-29.973125 41.441875 -30.57125 41.00875 -31.1875 40.5625 C-34.72528658 35.53511907 -34.80267871 29.8867952 -34.1015625 23.984375 C-32.07384489 15.30661577 -27.9441359 6.66753493 -20.203125 1.8515625 C-19.59984375 1.52929688 -18.9965625 1.20703125 -18.375 0.875 C-17.59125 0.42125 -16.8075 -0.0325 -16 -0.5 C-10.53997112 -1.80000688 -5.327515 -1.77583833 0 0 Z " fill="#000405" transform="translate(429.375,400.125)"/>
<path d="M0 0 C20.30777204 0.10660248 20.30777204 0.10660248 27.6015625 5.265625 C32.66923107 10.97021366 33.99048481 15.61681949 33.6015625 23.265625 C32.72228466 28.83438467 30.88916266 31.46240707 26.74609375 35.00390625 C20.39824339 38.73861603 13.88079407 38.54648379 6.7265625 38.453125 C5.76492187 38.45248047 4.80328125 38.45183594 3.8125 38.45117188 C-3.25782916 38.40623334 -3.25782916 38.40623334 -4.3984375 37.265625 C-4.51175843 34.69543015 -4.56261235 32.15311023 -4.56640625 29.58203125 C-4.57139885 28.42597633 -4.57139885 28.42597633 -4.57649231 27.24656677 C-4.5815646 25.61319579 -4.58390054 23.9798144 -4.58374023 22.34643555 C-4.5859253 19.84211201 -4.60407345 17.33822979 -4.62304688 14.83398438 C-4.62598097 13.25000151 -4.62796566 11.66601655 -4.62890625 10.08203125 C-4.63609177 9.3299086 -4.64327728 8.57778595 -4.65068054 7.8028717 C-4.6185117 0.51149641 -4.6185117 0.51149641 0 0 Z " fill="#FCFCFC" transform="translate(178.3984375,222.734375)"/>
<path d="M0 0 C0.96582355 2.89747064 1.87970069 5.80578446 2.78515625 8.72265625 C3.14738281 9.88949951 3.50960937 11.05634277 3.8828125 12.25854492 C4.46675781 14.14150269 4.46675781 14.14150269 5.0625 16.0625 C5.46483355 17.35848298 5.86717741 18.65446277 6.26953125 19.95043945 C8.30423656 26.50780731 10.33001597 33.06777368 12.33984375 39.6328125 C12.70392334 40.82124756 13.06800293 42.00968262 13.44311523 43.23413086 C14.13819474 45.50530195 14.83176043 47.77693699 15.52368164 50.04907227 C15.8355542 51.06799561 16.14742676 52.08691895 16.46875 53.13671875 C16.74138672 54.03092529 17.01402344 54.92513184 17.29492188 55.84643555 C17.94705703 58.01637618 17.94705703 58.01637618 19 60 C7.12 60 -4.76 60 -17 60 C-18.21041429 56.36875712 -17.67392702 55.14903749 -16.56884766 51.53466797 C-16.23164703 50.41696014 -15.89444641 49.29925232 -15.54702759 48.14767456 C-14.98620987 46.33820847 -14.98620987 46.33820847 -14.4140625 44.4921875 C-14.03768646 43.2558255 -13.66131042 42.0194635 -13.27352905 40.74563599 C-12.47674358 38.12970139 -11.67423399 35.51561888 -10.8671875 32.90283203 C-9.83107987 29.54808851 -8.80542058 26.19026935 -7.78351784 22.83117485 C-6.81011297 19.63364311 -5.83087449 16.43791537 -4.8515625 13.2421875 C-4.48173248 12.03182831 -4.11190247 10.82146912 -3.73086548 9.57443237 C-3.38736053 8.46302887 -3.04385559 7.35162537 -2.68994141 6.20654297 C-2.38714264 5.22297821 -2.08434387 4.23941345 -1.77236938 3.2260437 C-1 1 -1 1 0 0 Z " fill="#FCFCFC" transform="translate(883,222)"/>
<path d="M0 0 C2.34230663 1.97632122 3.81507917 3.66556912 4.37109375 6.73828125 C4.49377788 10.91675822 4.23396878 13.25990188 2.1875 17 C-4.79676029 24.04295155 -15.69964323 24.39178118 -25 24.6875 C-26.02632882 29.07542758 -25.98429896 31.53851127 -24 35.6875 C-20.77913201 38.80446902 -17.79637244 38.87967534 -13.5 38.9375 C-10.61262417 38.88883636 -8.09582975 38.71008057 -5.28125 38.046875 C-4.5284375 37.92828125 -3.775625 37.8096875 -3 37.6875 C-2.34 38.3475 -1.68 39.0075 -1 39.6875 C-2 42.6875 -2 42.6875 -5.3125 44.375 C-11.8156662 46.58560866 -19.50678611 46.94368265 -26 44.5 C-30.46271986 41.80377342 -32.36979251 39.24801379 -34.3125 34.4375 C-36.10459219 24.66245168 -32.76764359 15.57048089 -27.4375 7.375 C-21.03936322 -0.57029328 -9.46255288 -4.13986688 0 0 Z " fill="#000405" transform="translate(313,400.3125)"/>
<path d="M0 0 C2.43858648 2.05755734 3.82502019 3.78782503 4.44140625 6.95703125 C4.75673116 13.57885435 4.75673116 13.57885435 2.71484375 16.5703125 C-4.38704067 23.00892298 -12.03418429 24.02783954 -21.33984375 24.4765625 C-23.92047824 24.39164508 -23.92047824 24.39164508 -25 25.6875 C-25.50125283 29.01892278 -25.50125283 29.01892278 -25 32.6875 C-22.8272578 35.31766161 -21.05326212 37.16086894 -18 38.6875 C-12.27818607 39.00537855 -6.61590124 38.90174892 -1 37.6875 C-1 40.6875 -1 40.6875 -2.6875 42.8125 C-7.82830538 46.98072058 -15.69510424 46.28955901 -22 45.6875 C-26.90159736 44.08270656 -30.16359013 40.94211481 -33 36.6875 C-35.77824498 28.35276507 -33.71466009 20.39368925 -30 12.6875 C-23.97977801 2.2144511 -12.06150584 -5.2769088 0 0 Z " fill="#000405" transform="translate(774,400.3125)"/>
<path d="M0 0 C2.67280117 1.6254294 3.55887016 3.26234068 4.82421875 6.109375 C5.22543864 9.85409402 5.1563931 12.31584739 3.69921875 15.796875 C-0.18662227 20.58941226 -5.15254406 23.1072789 -11.17578125 24.109375 C-14.60954849 24.42633813 -18.03747599 24.67113245 -21.48046875 24.86328125 C-24.09154025 24.81183959 -24.09154025 24.81183959 -25.17578125 26.109375 C-25.43464342 29.99230758 -25.50030922 32.89931256 -23.17578125 36.109375 C-19.15536249 39.74072098 -15.02899938 39.39903598 -9.89453125 39.3125 C-7.24800138 39.11477076 -4.76274758 38.69050512 -2.17578125 38.109375 C-1.84578125 39.759375 -1.51578125 41.409375 -1.17578125 43.109375 C-8.37217021 46.43078529 -15.53642236 47.41076551 -23.359375 45.60546875 C-27.47322852 44.05724431 -29.81352702 41.74361228 -32.17578125 38.109375 C-34.75999641 30.35672952 -33.85903085 21.71688107 -30.421875 14.390625 C-26.46453764 7.14584437 -22.88333391 3.11809688 -15.0625 -0.05078125 C-10.02621689 -1.5160057 -4.93218975 -2.01892148 0 0 Z " fill="#000405" transform="translate(633.17578125,399.890625)"/>
<path d="M0 0 C2.43858648 2.05755734 3.82502019 3.78782503 4.44140625 6.95703125 C4.75534574 13.54976048 4.75534574 13.54976048 2.75 16.5703125 C-5.05380593 23.75993 -14.86837494 24.2333777 -25 24.6875 C-26.02632882 29.07542758 -25.98429896 31.53851127 -24 35.6875 C-20.25741151 38.50934548 -17.5769975 39.05480714 -12.9375 38.9375 C-11.91527344 38.92203125 -10.89304687 38.9065625 -9.83984375 38.890625 C-7.06803306 38.78987722 -7.06803306 38.78987722 -4.75390625 38.046875 C-4.17511719 37.92828125 -3.59632812 37.8096875 -3 37.6875 C-2.34 38.3475 -1.68 39.0075 -1 39.6875 C-1.5625 41.5625 -1.5625 41.5625 -3 43.6875 C-9.49752744 46.51251193 -17.6632398 47.03148 -24.4453125 44.9296875 C-28.176557 43.1810969 -30.97069237 41.38800215 -33 37.6875 C-35.54574693 30.05025922 -34.75283319 21.2909722 -31.38671875 14.0390625 C-27.46750679 7.39296222 -22.69425946 2.03693523 -15.3671875 -0.7265625 C-10.0120866 -2.05208252 -5.08771291 -2.2258744 0 0 Z " fill="#000405" transform="translate(57,400.3125)"/>
<path d="M0 0 C6.0841632 5.0013884 11.63837599 10.48520226 17.18994141 16.05957031 C18.75701078 17.63203492 20.32940067 19.19903824 21.90234375 20.765625 C22.90917524 21.77311674 23.91569677 22.78091835 24.921875 23.7890625 C25.82518555 24.69350098 26.72849609 25.59793945 27.65917969 26.52978516 C29.62605101 28.60538007 31.35315092 30.66843704 33 33 C31.62708132 33.48509793 30.25153297 33.96275513 28.875 34.4375 C28.10929688 34.70433594 27.34359375 34.97117187 26.5546875 35.24609375 C16.71637742 38.14944825 5.3612947 38.56314156 -4 34 C-8.23565859 31.3296935 -10.27958542 28.70850306 -12 24 C-12.93855881 16.9608089 -10.94433177 11.85791847 -7 6 C-4.78596263 3.69447348 -2.57682106 1.91998432 0 0 Z " fill="#FCFCFC" transform="translate(580,280)"/>
<path d="M0 0 C3.94088284 4.05035181 5.00997459 6.83052617 4.984375 12.3984375 C4.44498728 21.55004922 3.21677894 30.07711622 1 39 C3.31 39.66 5.62 40.32 8 41 C7 44 7 44 5 45 C3.33555539 45.0955931 1.66718037 45.12984645 0 45.125 C-0.886875 45.12757813 -1.77375 45.13015625 -2.6875 45.1328125 C-5 45 -5 45 -7 44 C-6.57294466 38.29094447 -5.98635002 32.69356005 -4.9375 27.0625 C-3.91534314 21.13089276 -3.12780223 14.99284272 -4 9 C-5.40612029 7.16375911 -5.40612029 7.16375911 -7 6 C-19.82662021 16.1245657 -25.22073519 29.39132906 -29 45 C-30.98 45 -32.96 45 -35 45 C-36.13486643 40.79365184 -35.79482974 37.60553663 -35.00390625 33.34375 C-34.77509766 32.07402344 -34.54628906 30.80429687 -34.31054688 29.49609375 C-34.06181202 28.16394769 -33.81245723 26.83191724 -33.5625 25.5 C-33.07900296 22.88638223 -32.60286225 20.27163746 -32.12890625 17.65625 C-31.91306885 16.49931641 -31.69723145 15.34238281 -31.47485352 14.15039062 C-31.05526116 11.36662723 -30.9049576 8.80720376 -31 6 C-32.98 5.34 -34.96 4.68 -37 4 C-35 1 -35 1 -32 0 C-30.27204648 -0.06802967 -28.54164635 -0.08495645 -26.8125 -0.0625 C-25.91144531 -0.05347656 -25.01039063 -0.04445313 -24.08203125 -0.03515625 C-23.39496094 -0.02355469 -22.70789063 -0.01195312 -22 0 C-22 5 -22 10 -22 15 C-21.61070312 14.43152344 -21.22140625 13.86304688 -20.8203125 13.27734375 C-16.16301565 6.84941562 -8.864481 -3.12776838 0 0 Z " fill="#000405" transform="translate(683,400)"/>
<path d="M0 0 C0.99386719 0.00902344 1.98773438 0.01804687 3.01171875 0.02734375 C4.15060547 0.04474609 4.15060547 0.04474609 5.3125 0.0625 C5.04235067 1.56262334 4.77130801 3.06258578 4.5 4.5625 C4.32082031 5.5628125 4.14164062 6.563125 3.95703125 7.59375 C3.49939047 10.05668947 3.0148012 12.51468929 2.51171875 14.96875 C0.93647539 22.72036076 -0.14208534 30.11567479 0.3125 38.0625 C2.95843488 39.18860897 2.95843488 39.18860897 6.3125 39.0625 C16.07695618 32.75350206 21.54861844 19.84163807 24.3125 9.0625 C24.55118593 7.69244277 24.76571053 6.31754208 24.9375 4.9375 C25.3125 2.0625 25.3125 2.0625 27.3125 0.0625 C30.4375 0.4375 30.4375 0.4375 33.3125 1.0625 C31.61114283 13.77790618 29.45412707 26.41536606 27.3125 39.0625 C29.9525 39.7225 32.5925 40.3825 35.3125 41.0625 C33.9375 43.0625 33.9375 43.0625 31.3125 45.0625 C27.29161941 45.56186743 22.99612274 45.90431137 19.3125 44.0625 C19.3125 40.1025 19.3125 36.1425 19.3125 32.0625 C18.6525 32.7225 17.9925 33.3825 17.3125 34.0625 C16.85617187 34.51109375 16.39984375 34.9596875 15.9296875 35.421875 C14.7372036 36.63164128 13.58062693 37.8770533 12.4453125 39.140625 C9.25931421 42.58695778 7.13373975 44.78411365 2.625 46.3125 C-1.46961541 46.00347242 -2.88968425 45.02019094 -5.6875 42.0625 C-10.23589271 34.54015822 -7.4616453 24.7395103 -5.75512695 16.63378906 C-5.00582548 13.0460358 -4.51756565 9.73024979 -4.6875 6.0625 C-6.6675 5.4025 -8.6475 4.7425 -10.6875 4.0625 C-7.70956006 -0.4044099 -5.03135189 -0.05919238 0 0 Z " fill="#010506" transform="translate(456.6875,399.9375)"/>
<path d="M0 0 C2 2 2 2 2.2578125 3.78515625 C0.84198651 28.06240786 -22.24026037 53.11552724 -39 69 C-40.65 68.01 -42.3 67.02 -44 66 C-43.69528965 62.88203366 -42.96941754 61.97128788 -40.63671875 59.78125 C-39.66347656 59.0284375 -38.69023437 58.275625 -37.6875 57.5 C-35.78104408 56.01352435 -33.88460583 54.51408219 -32 53 C-31.20207031 52.4740625 -30.40414063 51.948125 -29.58203125 51.40625 C-26.26739109 46.36472324 -28.63623001 39.81602457 -29.75439453 34.23388672 C-30.63374708 30.12163711 -31.59436198 26.0295856 -32.5625 21.9375 C-33.05719892 19.82124785 -33.54981409 17.70453547 -34.04026794 15.58729553 C-34.48065699 13.69000649 -34.92681409 11.79405901 -35.37329102 9.89819336 C-36 7 -36 7 -36 5 C-37.65 5 -39.3 5 -41 5 C-41 4.01 -41 3.02 -41 2 C-37.79619983 -0.13586678 -36.98060033 -0.23132175 -33.3125 -0.125 C-32.10013672 -0.09792969 -32.10013672 -0.09792969 -30.86328125 -0.0703125 C-29.94095703 -0.03550781 -29.94095703 -0.03550781 -29 0 C-27.45832407 4.34578084 -26.38129893 8.62556631 -25.4921875 13.1484375 C-25.36184113 13.80582916 -25.23149475 14.46322083 -25.09719849 15.14053345 C-24.68614664 17.21798831 -24.28048787 19.29645276 -23.875 21.375 C-23.59540944 22.79303926 -23.31546493 24.21100877 -23.03515625 25.62890625 C-22.3526782 29.08514099 -21.67502906 32.54230174 -21 36 C-20.01 36 -19.02 36 -18 36 C-12.0611624 26.3531572 -7.67294618 16.71275968 -4 6 C-6.31 5.67 -8.62 5.34 -11 5 C-10.875 3.125 -10.875 3.125 -10 1 C-6.42433339 -0.66864442 -3.72109277 -1.59475405 0 0 Z " fill="#000405" transform="translate(389,400)"/>
<path d="M0 0 C6.875 11.6875 6.875 11.6875 6.875 15.1875 C7.535 15.1875 8.195 15.1875 8.875 15.1875 C8.875 15.8475 8.875 16.5075 8.875 17.1875 C13.36217034 13.32385705 17.75175353 9.43959792 21.875 5.1875 C19.895 4.1975 17.915 3.2075 15.875 2.1875 C16.535 1.1975 17.195 0.2075 17.875 -0.8125 C20.6953125 -1.10546875 20.6953125 -1.10546875 24 -1 C25.64355469 -0.95939453 25.64355469 -0.95939453 27.3203125 -0.91796875 C28.58488281 -0.86576172 28.58488281 -0.86576172 29.875 -0.8125 C30.72265625 1.3125 30.72265625 1.3125 30.875 4.1875 C29.07863438 6.46552183 27.42522386 8.24940175 25.3125 10.1875 C24.52262695 10.94933594 24.52262695 10.94933594 23.71679688 11.7265625 C21.06826792 14.25514584 18.35289194 16.61645499 15.48046875 18.88671875 C14.62066406 19.64597656 13.76085937 20.40523438 12.875 21.1875 C12.66953956 25.81035993 14.87310266 29.4829483 17.03515625 33.453125 C17.875 35.1875 17.875 35.1875 17.875 37.1875 C20.185 37.8475 22.495 38.5075 24.875 39.1875 C25.37 41.1675 25.37 41.1675 25.875 43.1875 C22.18016081 44.36984854 18.73146386 44.4679701 14.875 44.1875 C11.6020441 41.76723524 10.0226758 38.03625733 8.1875 34.5 C7.86716797 33.89349609 7.54683594 33.28699219 7.21679688 32.66210938 C6.43128516 31.17315434 5.65247058 29.68066953 4.875 28.1875 C1.10363602 29.47718924 -1.20571021 30.9200167 -3.9375 33.8125 C-4.54207031 34.44414062 -5.14664063 35.07578125 -5.76953125 35.7265625 C-6.21683594 36.20867187 -6.66414063 36.69078125 -7.125 37.1875 C-6.465 37.785625 -5.805 38.38375 -5.125 39 C-3.125 41.1875 -3.125 41.1875 -3.125 44.1875 C-7.745 44.1875 -12.365 44.1875 -17.125 44.1875 C-17.62 42.7025 -17.62 42.7025 -18.125 41.1875 C-14.43625316 35.30148518 -8.49264935 30.71952609 -3.26171875 26.265625 C-0.4344375 23.65000102 -0.4344375 23.65000102 0.875 20.1875 C-0.15612623 17.42384191 -1.2147437 15.11858954 -2.625 12.5625 C-2.9653125 11.881875 -3.305625 11.20125 -3.65625 10.5 C-5.60304328 6.87839191 -6.53138568 5.45179971 -10.40625 3.7265625 C-11.75203125 3.45972656 -11.75203125 3.45972656 -13.125 3.1875 C-10.75982508 0.25468309 -9.28143602 -0.76501049 -5.625 -1.875 C-2.125 -1.8125 -2.125 -1.8125 0 0 Z " fill="#000405" transform="translate(81.125,400.8125)"/>
<path d="M0 0 C4.06404653 4.46652457 4.10378403 9.16585477 4 15 C3.00577897 23.40857145 0.40344085 29.36805805 -6 35 C-9.19378082 36.59689041 -12.52521315 36.37348957 -16 36 C-19.86594961 34.31915234 -21.42432065 32.849357 -23 29 C-24.26295147 20.76144448 -22.05849504 12.83894461 -17.64453125 5.85546875 C-13.00121306 -0.05760401 -7.37381556 -3.85449449 0 0 Z " fill="#FCFCFC" transform="translate(224,405)"/>
<path d="M0 0 C5.0111443 4.88892127 6.79261825 9.36008675 7 16.375 C6.58732328 26.62743726 3.70588167 34.04123724 -3.4375 41.5 C-9.44749481 45.97255428 -16.14654852 46.25281394 -23.4375 45.5 C-27.77840285 43.99046081 -31.10993554 41.50858323 -33.4375 37.5 C-35.95159255 29.95772235 -34.98630877 22.00732311 -31.6875 14.8828125 C-31.275 14.09648437 -30.8625 13.31015625 -30.4375 12.5 C-30.025 11.69304687 -29.6125 10.88609375 -29.1875 10.0546875 C-23.10721657 -0.41307318 -11.3459003 -4.95093831 0 0 Z M-20.1796875 8.234375 C-25.82096497 15.25088926 -27.78132178 22.32889095 -27.73828125 31.23828125 C-27.25385057 34.88094832 -26.14103798 36.92061578 -23.3125 39.25 C-19.58582091 40.87029526 -16.3829765 41.42834741 -12.4375 40.5 C-7.26894437 37.41736245 -3.53918139 33.12829202 -1.78515625 27.3515625 C-0.00420089 19.97165596 0.61512035 12.16539348 -3.1875 5.375 C-9.16840777 0.3909102 -15.10772739 3.1851591 -20.1796875 8.234375 Z " fill="#000405" transform="translate(228.4375,400.5)"/>
<path d="M0 0 C3.82013338 3.82013338 4.31515082 6.82049971 4.5 12.1875 C4.2148016 20.24665482 2.69000246 27.86983168 -3.25 33.6875 C-7.25253026 36.65933578 -10.12288511 36.70796829 -15 36 C-18.86594961 34.31915234 -20.42432065 32.849357 -22 29 C-23.3354579 20.2884665 -20.56519869 11.92485825 -16.0625 4.5 C-13.40230131 1.27551674 -10.82752523 -0.25756788 -7 -1.8125 C-4.06137511 -2.08799608 -2.56022615 -1.47213004 0 0 Z " fill="#FCFCFC" transform="translate(425,405)"/>
<path d="M0 0 C1.485 0.99 1.485 0.99 3 2 C2.67 5.96 2.34 9.92 2 14 C-0.475 13.505 -0.475 13.505 -3 13 C-3.33 10.69 -3.66 8.38 -4 6 C-9.34001821 4.66499545 -12.83955235 5.487455 -18 7 C-18.33 9.31 -18.66 11.62 -19 14 C-18.41992188 14.38671875 -17.83984375 14.7734375 -17.2421875 15.171875 C-15.62229431 16.25180379 -14.00387276 17.33394243 -12.38671875 18.41796875 C-10.50717032 19.66382328 -8.60173069 20.87062052 -6.6875 22.0625 C-2.51054198 25.07379532 -0.38629169 27.45483326 0.875 32.5 C1.00678943 36.19010398 0.89811091 37.86399067 -1 41 C-7.28591233 47.01261179 -11.60817527 47.21935021 -20.00390625 47.16796875 C-23.65433488 46.9633163 -26.57740056 46.24458162 -30 45 C-31.12377697 41.69564916 -30.89554742 39.9493138 -29.5625 36.75 C-29.27503906 36.04359375 -28.98757813 35.3371875 -28.69140625 34.609375 C-28.46324219 34.07828125 -28.23507812 33.5471875 -28 33 C-27.01 33 -26.02 33 -25 33 C-24.67 35.31 -24.34 37.62 -24 40 C-21.0923543 40.82791734 -18.45909481 41.16193659 -15.4375 41.1875 C-14.29087891 41.20876953 -14.29087891 41.20876953 -13.12109375 41.23046875 C-10.69846497 41.1323375 -10.69846497 41.1323375 -8 39 C-7.41630557 35.58461856 -7.41630557 35.58461856 -8 32 C-11.5789963 27.64074858 -16.34365192 25.43484939 -21.22265625 22.78125 C-23.94735864 21.03376155 -25.43291648 19.80882099 -27 17 C-27 12.06061882 -26.55286484 9.86181872 -23.875 5.6875 C-16.83201782 -0.89615725 -9.34831318 -0.90429663 0 0 Z " fill="#000405" transform="translate(730,399)"/>
<path d="M0 0 C1.485 0.99 1.485 0.99 3 2 C2.85904936 3.6254308 2.71207913 5.25034051 2.5625 6.875 C2.48128906 7.77992188 2.40007813 8.68484375 2.31640625 9.6171875 C2 12 2 12 1 14 C-0.32 13.67 -1.64 13.34 -3 13 C-3.33 10.69 -3.66 8.38 -4 6 C-9.84931549 4.68688836 -12.98724239 4.89209028 -18 8 C-18.87462934 10.85712251 -19 13.04877804 -19 16 C-18.360625 16.226875 -17.72125 16.45375 -17.0625 16.6875 C-10.24993356 19.60717133 -3.83893469 22.43666004 0 29 C0.82135638 33.16108647 0.95490951 37.02544135 -0.921875 40.90625 C-3.7274043 44.62266544 -6.50923643 46.18349753 -11 47 C-17.6884905 47.42851053 -23.67602281 47.29962807 -30 45 C-31.12377697 41.69564916 -30.89554742 39.9493138 -29.5625 36.75 C-29.27503906 36.04359375 -28.98757813 35.3371875 -28.69140625 34.609375 C-28.46324219 34.07828125 -28.23507812 33.5471875 -28 33 C-27.01 33 -26.02 33 -25 33 C-25 34.98 -25 36.96 -25 39 C-20.47046119 41.2647694 -16.96952231 41.31552523 -12 41 C-9.59442147 40.13734032 -9.59442147 40.13734032 -8 39 C-7.58228196 35.66799815 -7.58228196 35.66799815 -8 32 C-12.02720411 28.25578861 -16.78620007 25.60831777 -21.4765625 22.78125 C-23.96213762 21.02672639 -25.42648045 19.58469933 -27 17 C-27.67884096 12.63602241 -26.83210288 9.35628338 -24.43359375 5.61328125 C-18.3480667 -1.23500941 -8.43607056 -0.93252194 0 0 Z " fill="#000405" transform="translate(815,399)"/>
<path d="M0 0 C1.485 0.99 1.485 0.99 3 2 C3.3148325 6.17153059 2.98386923 9.94153944 2 14 C0.68 13.67 -0.64 13.34 -2 13 C-2.33 10.36 -2.66 7.72 -3 5 C-8.61854752 4.65600729 -12.25548019 5.05839772 -17 8 C-18.0615942 11.58863524 -18.0615942 11.58863524 -18 15 C-17.01 15.556875 -16.02 16.11375 -15 16.6875 C-13.66664836 17.45830166 -12.33331633 18.22913726 -11 19 C-9.95779297 19.57814453 -9.95779297 19.57814453 -8.89453125 20.16796875 C-4.3535853 22.80052466 -1.30385298 25.10431242 1 30 C1.8689022 34.51648124 1.37327598 37.30493438 -0.8125 41.375 C-3.90638758 45.0876651 -6.32211309 46.32491136 -11 47 C-17.59274002 47.38622319 -23.81293995 47.47482402 -30 45 C-31.34201604 42.31596792 -30.70405525 41.2569869 -29.8125 38.4375 C-29.57144531 37.63183594 -29.33039062 36.82617188 -29.08203125 35.99609375 C-28 34 -28 34 -25.88671875 33.22265625 C-25.26410156 33.14917969 -24.64148438 33.07570313 -24 33 C-24.33 35.31 -24.66 37.62 -25 40 C-18.93161477 41.5660349 -12.55141971 42.18482809 -7 39 C-6.5731671 35.32923704 -6.57248958 33.5749278 -8.8125 30.5625 C-12.2811814 27.46261519 -16.38402776 25.19302667 -20.37890625 22.84375 C-23.23086921 20.8376002 -25.05550196 18.88700769 -27 16 C-27 11.0250584 -25.22871782 7.71302549 -22 4 C-15.39966594 -0.61880829 -7.81651208 -0.93105269 0 0 Z " fill="#000405" transform="translate(589,399)"/>
<path d="M0 0 C0.93555619 3.73051127 0.96433236 6.54298529 0.30322266 10.32177734 C0.12618805 11.3599057 -0.05084656 12.39803406 -0.23324585 13.46762085 C-0.43213409 14.57916534 -0.63102234 15.69070984 -0.8359375 16.8359375 C-1.13414902 18.56500839 -1.13414902 18.56500839 -1.43838501 20.32901001 C-2.07547745 24.01253262 -2.72491516 27.69375034 -3.375 31.375 C-4.0151819 35.04954785 -4.65286993 38.72452178 -5.29019165 42.39956665 C-5.68748148 44.68493499 -6.08694275 46.9699272 -6.48886108 49.25448608 C-7.40867813 54.494437 -8.29150437 59.72710337 -9 65 C-7.02 65.66 -5.04 66.32 -3 67 C-3 67.99 -3 68.98 -3 70 C-5.45382134 71.22691067 -7.19984103 71.20175931 -9.9375 71.25 C-10.81277344 71.27578125 -11.68804687 71.3015625 -12.58984375 71.328125 C-15 71 -15 71 -16.67999268 69.79019165 C-18 68 -18 68 -18.02581787 65.72567749 C-17.86228821 64.83571075 -17.69875854 63.94574402 -17.53027344 63.02880859 C-17.35308777 62.01700531 -17.1759021 61.00520203 -16.99334717 59.96273804 C-16.78413635 58.86901886 -16.57492554 57.77529968 -16.359375 56.6484375 C-16.15773743 55.51983307 -15.95609985 54.39122864 -15.74835205 53.22842407 C-15.09821745 49.60750863 -14.42485927 45.99138112 -13.75 42.375 C-13.09426693 38.77930868 -12.44331349 35.18279088 -11.79449463 31.58584595 C-11.38890171 29.346616 -10.9784581 27.10825751 -10.56243896 24.87094116 C-9.46678582 18.92077602 -8.58643393 13.02234634 -8 7 C-9.98 6.34 -11.96 5.68 -14 5 C-14 4.01 -14 3.02 -14 2 C-4.58997722 -0.29612756 -4.58997722 -0.29612756 0 0 Z " fill="#000405" transform="translate(187,374)"/>
<path d="M0 0 C3.63467079 1.62400184 4.77408696 2.66113044 7 6 C7.91645426 11.07054612 8.30882331 15.98817012 5.421875 20.42578125 C3.38862644 22.48619152 1.30789645 24.25551407 -1 26 C-1.55816406 26.47695312 -2.11632812 26.95390625 -2.69140625 27.4453125 C-4.1875 28.625 -4.1875 28.625 -7 30 C-10.00072351 29.63405811 -11.33911392 28.73155887 -13.3515625 26.50390625 C-17.01718378 21.69143855 -19.3188442 17.10834252 -18.9375 10.9375 C-18.25551988 6.69136188 -16.38243956 4.67448709 -13 2 C-8.72838356 -0.51531134 -4.85037654 -0.57165152 0 0 Z " fill="#FCFCFC" transform="translate(595,220)"/>
<path d="M0 0 C3 1 3 1 5 4 C5.69996829 12.17235699 6.11287171 20.70296955 2 28 C-0.64292792 31.12012324 -3.30981884 34.15490942 -7 36 C-9.01896864 36.0962762 -11.0412429 36.12981825 -13.0625 36.125 C-14.68865234 36.12886719 -14.68865234 36.12886719 -16.34765625 36.1328125 C-19 36 -19 36 -20 35 C-20 23.14274532 -11.9260443 11.31826093 -4 3 C-1.94921875 1.16796875 -1.94921875 1.16796875 0 0 Z " fill="#FCFCFC" transform="translate(147,405)"/>
<path d="M0 0 C2.375 0.9375 2.375 0.9375 5.375 2.9375 C4.385 4.9175 3.395 6.8975 2.375 8.9375 C1.364375 8.73125 0.35375 8.525 -0.6875 8.3125 C-5.22585346 9.03287356 -5.59006849 9.51422303 -8.1875 13.0625 C-14.60591259 23.28868994 -18.38748818 34.12186739 -20.625 45.9375 C-22.935 45.9375 -25.245 45.9375 -27.625 45.9375 C-27.27226217 36.58994738 -25.77216842 27.62286426 -23.99707031 18.45458984 C-23.82143555 17.54016113 -23.64580078 16.62573242 -23.46484375 15.68359375 C-23.30363037 14.86560303 -23.14241699 14.0476123 -22.97631836 13.20483398 C-22.52291963 10.66109341 -22.52291963 10.66109341 -22.625 6.9375 C-24.605 6.2775 -26.585 5.6175 -28.625 4.9375 C-28.625 4.2775 -28.625 3.6175 -28.625 2.9375 C-23.76448404 0.34522482 -18.97228867 0.75060447 -13.625 0.9375 C-13.59778824 2.83325251 -13.57850864 4.72911979 -13.5625 6.625 C-13.55089844 7.68074219 -13.53929687 8.73648437 -13.52734375 9.82421875 C-13.61634575 12.66160262 -13.97560162 15.1813919 -14.625 17.9375 C-13.965 17.9375 -13.305 17.9375 -12.625 17.9375 C-12.955 16.9475 -13.285 15.9575 -13.625 14.9375 C-11.22793251 9.62069618 -6.6350926 -0.1579784 0 0 Z " fill="#000405" transform="translate(273.625,399.0625)"/>
<path d="M0 0 C2.4375 0.3125 2.4375 0.3125 4.4375 2.3125 C4.40462417 5.04119407 3.87352229 7.6091618 3.4375 10.3125 C2.7775 9.9825 2.1175 9.6525 1.4375 9.3125 C-1.47489008 8.74949982 -1.47489008 8.74949982 -4.5625 9.3125 C-6.87952469 11.74159941 -6.87952469 11.74159941 -8.625 15.0625 C-8.96297607 15.65087646 -9.30095215 16.23925293 -9.64916992 16.84545898 C-14.91257316 26.22509737 -18.27340774 35.81617453 -20.5625 46.3125 C-22.5425 46.3125 -24.5225 46.3125 -26.5625 46.3125 C-27.85014645 42.62959632 -27.30032097 39.82875696 -26.56640625 36.04296875 C-26.22319336 34.21475586 -26.22319336 34.21475586 -25.87304688 32.34960938 C-25.62619141 31.07923828 -25.37933594 29.80886719 -25.125 28.5 C-24.64136602 25.9945964 -24.16332318 23.48810577 -23.69140625 20.98046875 C-23.36765015 19.31407349 -23.36765015 19.31407349 -23.03735352 17.61401367 C-22.5372687 14.13707433 -22.48222622 10.82038071 -22.5625 7.3125 C-25.0375 6.3225 -25.0375 6.3225 -27.5625 5.3125 C-27.2325 4.3225 -26.9025 3.3325 -26.5625 2.3125 C-21.92547289 0.7668243 -17.43778349 1.25514372 -12.5625 1.3125 C-12.8925 5.9325 -13.2225 10.5525 -13.5625 15.3125 C-10.9752348 12.7252348 -9.27138526 9.07278729 -7.3515625 5.9765625 C-3.63573154 0.44338189 -3.63573154 0.44338189 0 0 Z " fill="#000405" transform="translate(530.5625,398.6875)"/>
<path d="M0 0 C2.54297836 3.81446754 2.57970297 6.53067709 2 11 C0.46210744 13.71392804 -1.08313846 14.03290897 -4 15.1875 C-8.91600979 16.46671975 -13.96198601 16.16398599 -19 16 C-18.39216681 9.61775151 -16.08282552 5.79880385 -11.25 1.625 C-7.01510654 -0.49244673 -4.68637367 -0.5467436 0 0 Z " fill="#FCFCFC" transform="translate(769,404)"/>
<path d="M0 0 C1.9375 1.0625 1.9375 1.0625 3 3 C3.5625 6.375 3.5625 6.375 3 10 C-1.32624373 14.62807469 -4.7222326 15.88941406 -10.89453125 16.09765625 C-11.85746094 16.08605469 -12.82039062 16.07445312 -13.8125 16.0625 C-15.27623047 16.04896484 -15.27623047 16.04896484 -16.76953125 16.03515625 C-17.87361328 16.01775391 -17.87361328 16.01775391 -19 16 C-18.02619825 10.24483165 -15.78670581 6.57400274 -11.375 2.6875 C-7.3952227 -0.1402365 -4.9104677 -0.34459422 0 0 Z " fill="#FCFCFC" transform="translate(628,404)"/>
<path d="M0 0 C2.57672219 2.16112183 2.93265824 3.64832638 3.5625 6.9375 C3 10 3 10 0.3125 12.8125 C-5.57504472 16.70050123 -11.14717824 16.11975805 -18 16 C-19 13 -19 13 -18.25 10.87890625 C-14.12255071 3.23022678 -9.41890562 -1.4490624 0 0 Z " fill="#FCFCFC" transform="translate(307,404)"/>
<path d="M0 0 C0.70125 -0.02578125 1.4025 -0.0515625 2.125 -0.078125 C2.74375 0.03015625 3.3625 0.1384375 4 0.25 C6.5099972 4.01499581 6.61476744 5.79293606 6 10.25 C3.06294237 14.25507859 1.14994136 15.01929076 -3.73828125 16 C-7.48172696 16.55096597 -11.23045806 16.92867772 -15 17.25 C-16 14.25 -16 14.25 -15.1796875 12.12890625 C-11.59193348 5.75903159 -7.883397 0.17389846 0 0 Z " fill="#FCFCFC" transform="translate(48,403.75)"/>
</svg>
