<?xml version="1.0" encoding="UTF-8" standalone="no"?>
<!DOCTYPE svg PUBLIC "-//W3C//DTD SVG 1.1//EN" "http://www.w3.org/Graphics/SVG/1.1/DTD/svg11.dtd">
<!-- Created with Vectornator (http://vectornator.io/) -->
<svg height="100%" stroke-miterlimit="10" style="fill-rule:nonzero;clip-rule:evenodd;stroke-linecap:round;stroke-linejoin:round;" version="1.1" viewBox="0 0 1200 500" width="100%" xml:space="preserve" xmlns="http://www.w3.org/2000/svg" xmlns:vectornator="http://vectornator.io" xmlns:xlink="http://www.w3.org/1999/xlink">
<defs/>
<g id="Capa-3" vectornator:layerName="Capa 3">
<path d="M86.6946 163.22L1159.03 163.22L1159.03 336.753L86.6946 336.753L86.6946 163.22Z" fill="#ffffff" fill-rule="nonzero" opacity="1" stroke="none" vectornator:layerName="Rectángulo 1"/>
</g>
<g id="Capa-1" vectornator:layerName="Capa 1">
<path d="M155.084 164.72C150.084 165.72 146.417 166.886 144.084 168.22C141.75 169.553 140.75 174.386 141.084 182.72C141.417 191.053 141.084 197.386 140.084 201.72C139.084 206.053 136.417 212.22 132.084 220.22C127.75 228.22 124.417 232.886 122.084 234.22C119.75 235.553 112.25 243.053 105.584 246.72C98.9168 250.386 88.9168 252.886 87.5835 254.22C86.2502 255.553 86.4168 259.22 88.0835 265.22C89.7502 271.22 92.7502 277.386 97.0835 283.72C101.417 290.053 104.75 293.22 107.084 293.22C109.417 293.22 111.75 292.386 114.084 290.72C116.417 289.053 128.75 281.886 131.084 281.22C133.417 280.553 140.584 274.053 144.584 271.72C148.584 269.386 152.584 265.886 156.584 261.22C160.584 256.553 164.75 250.72 169.084 243.72C173.417 236.72 177.084 228.053 180.084 217.72C183.084 207.386 184.75 196.386 185.084 184.72C185.417 173.053 184.584 166.553 182.584 165.22C180.584 163.886 176.75 163.22 171.084 163.22C165.417 163.22 160.084 163.72 155.084 164.72ZM194.584 167.22C193.25 169.886 192.75 176.72 193.084 187.72C193.417 198.72 194.584 207.886 196.584 215.22C198.584 222.553 200.75 228.72 203.084 233.72C205.417 238.72 208.25 243.72 211.584 248.72C214.917 253.72 219.417 259.053 225.084 264.72C230.75 270.386 239.084 276.553 250.084 283.22C261.084 289.886 267.917 293.22 270.584 293.22C273.25 293.22 276.75 289.886 281.084 283.22C285.417 276.553 288.417 267.886 290.084 265.22C291.75 262.553 292.417 260.22 292.084 258.22C291.75 256.22 289.584 254.22 285.584 252.22C281.584 250.22 273.417 248.053 271.084 245.72C268.75 243.386 260.584 238.886 254.584 232.22C248.584 225.553 244.25 219.053 241.584 212.72C238.917 206.386 237.584 197.886 237.584 187.22C237.584 176.553 237.084 170.72 236.084 169.72C235.084 168.72 231.75 167.386 226.084 165.72C220.417 164.053 214.084 163.22 207.084 163.22C200.084 163.22 195.917 164.553 194.584 167.22ZM170.084 275.72C161.084 276.72 149.917 280.386 136.584 286.72C123.25 293.053 116.084 297.22 115.084 299.22C114.084 301.22 113.75 303.386 114.084 305.72C114.417 308.053 115.75 311.553 118.084 316.22C120.417 320.886 123.917 325.553 128.584 330.22C133.25 334.886 136.417 337.053 138.084 336.72C139.75 336.386 141.25 335.386 142.584 333.72C143.917 332.053 147.75 329.386 154.084 325.72C160.417 322.053 166.584 319.553 172.584 318.22C178.584 316.886 184.084 316.22 189.084 316.22C194.084 316.22 199.417 316.886 205.084 318.22C210.75 319.553 215.917 321.553 220.584 324.22C225.25 326.886 228.75 329.386 231.084 331.72C233.417 334.053 235.75 335.22 238.084 335.22C240.417 335.22 243.417 333.72 247.084 330.72C250.75 327.72 254.75 323.053 259.084 316.72C263.417 310.386 265.584 306.22 265.584 304.22C265.584 302.22 264.25 300.053 261.584 297.72C258.917 295.386 248.584 291.386 242.584 287.72C236.584 284.053 230.417 281.22 224.084 279.22C217.75 277.22 209.417 275.886 199.084 275.22C188.75 274.553 179.084 274.72 170.084 275.72Z" fill="#00b5fc" fill-rule="nonzero" opacity="1" stroke="none" vectornator:layerName="Curva 1"/>
</g>
<g id="Capa-2" vectornator:layerName="Capa 2">
<path d="M419.16 203.857L419.53 267.763L378.391 203.857L345.42 203.857L344.068 303.982L370.994 303.982L368.718 231.566L417.591 303.984L417.533 303.982L443.282 303.597L443.97 203.857L419.16 203.857Z" fill="#010308" fill-rule="nonzero" opacity="1" stroke="#000000" stroke-linecap="butt" stroke-linejoin="round" stroke-width="2" vectornator:layerName="N"/>
<path d="M467.021 203.857L534.622 203.857L534.395 217.687L484.337 217.879L484.292 217.846L483.628 218.738L483.212 220.31L483.184 222.082L483.203 240.432L483.912 241.722L484.614 242.402L485.776 243.408L487.185 244.202L488.573 244.573L489.668 244.807L532.012 244.625L532.054 259.046L489.123 259.388L489.421 259.429L488.304 259.679L487.264 260.132L486.327 260.764L485.334 261.399L484.843 261.937L484.301 262.663L483.858 263.649L483.824 285.618L484.429 287.081L485.146 287.801L486.025 288.488L487.48 289.148L488.206 289.415L489.695 289.381L534.225 289.141L534.533 303.984L534.99 303.984L465.896 303.984L467.021 203.857Z" fill="#010308" fill-rule="nonzero" opacity="1" stroke="#000000" stroke-linecap="butt" stroke-linejoin="round" stroke-width="2" vectornator:layerName="E"/>
<g opacity="1" vectornator:layerName="D">
<path d="M556.81 203.857L556.81 303.982L627.779 303.982C639.723 303.982 649.404 281.568 649.404 253.92C649.404 226.271 639.723 203.857 627.779 203.857L556.81 203.857Z" fill="#010308" fill-rule="nonzero" opacity="1" stroke="#000000" stroke-linecap="butt" stroke-linejoin="round" stroke-width="2"/>
<path d="M579.372 216.982L579.372 288.576L610.279 288.576C619.106 288.576 626.247 272.536 626.247 252.763C626.247 232.99 619.106 216.982 610.279 216.982L579.372 216.982Z" fill="#ffffff" fill-rule="nonzero" opacity="1" stroke="#000000" stroke-linecap="butt" stroke-linejoin="round" stroke-width="2"/>
</g>
<g opacity="1" vectornator:layerName="A">
<path d="M694.347 205.203L723.188 205.203L758.469 303.853L736.763 303.984L727.894 278.266L690.209 278.025L681.715 303.984L658.258 303.982L694.347 205.203Z" fill="#000000" fill-rule="nonzero" opacity="1" stroke="#000000" stroke-linecap="butt" stroke-linejoin="round" stroke-width="2" vectornator:layerName="Curva 4"/>
<path d="M694.347 260.61L721.171 260.64L708.166 220.836L694.347 260.61Z" fill="#ffffff" fill-rule="nonzero" opacity="1" stroke="#000000" stroke-linecap="butt" stroke-linejoin="round" stroke-width="2" vectornator:layerName="Curva 3"/>
</g>
<path d="M776.122 203.857L775.691 303.85L796.302 303.982L796.458 228.703L829.04 303.984L848.735 303.984L878.142 229.029L881.601 305.726L902.047 305.824L900.293 203.857L865.496 203.857L838.391 272.471L809.177 203.857L776.122 203.857Z" fill="#000000" fill-rule="nonzero" opacity="1" stroke="#000000" stroke-linecap="butt" stroke-linejoin="round" stroke-width="2" vectornator:layerName="M"/>
<path d="M966.122 201.615C941.534 201.615 925.337 206.43 924.292 218.086C924.263 218.404 924.104 218.702 924.104 219.024L923.586 286.471C923.586 286.94 923.659 290.721 923.72 291.181C925.22 302.633 942.376 305.824 966.656 305.824C990.937 305.824 1010.09 301.746 1011.59 290.295C1011.65 289.834 1011.87 289.388 1011.87 288.92L1011.87 269.045L998.654 269.045L991.935 269.045L991.935 270.857L991.935 279.326C986.331 285.239 978.848 288.92 970.56 288.92C968.761 288.919 967.025 288.684 965.31 288.357C955.584 286.501 947.527 285.769 943.052 276.302C940.964 271.885 939.938 265.924 939.694 260.64C939.666 260.026 939.248 254.322 939.247 253.701C939.247 253.071 939.375 252.479 939.404 251.857C939.404 251.846 939.403 251.836 939.404 251.826C939.363 251.057 939.247 250.328 939.247 249.545C939.247 247.44 939.403 245.376 939.685 243.388C939.808 242.523 940.044 241.726 940.216 240.888C940.311 240.478 940.367 240.049 940.466 239.638C940.623 238.979 940.716 238.276 940.904 237.638C940.913 237.606 940.925 237.577 940.935 237.545C940.938 237.535 940.932 237.523 940.935 237.513C940.942 237.49 940.959 237.474 940.966 237.451C941.002 237.331 941.054 237.227 941.091 237.107C941.108 237.053 941.136 237.005 941.154 236.951C941.377 236.24 941.681 235.599 941.935 234.92C942.223 234.174 942.452 233.381 942.779 232.67C942.798 232.627 942.821 232.587 942.841 232.545C943.023 232.152 943.241 231.8 943.435 231.42C943.439 231.411 943.431 231.397 943.435 231.388C943.47 231.32 943.524 231.269 943.56 231.201C944.084 230.194 944.644 229.235 945.247 228.326C945.482 227.972 945.689 227.601 945.935 227.263C945.943 227.252 945.958 227.244 945.966 227.232C946.875 225.989 947.823 224.835 948.872 223.826C948.884 223.815 948.893 223.805 948.904 223.795C948.942 223.758 948.99 223.737 949.029 223.701C949.067 223.664 949.115 223.643 949.154 223.607C949.655 223.14 950.217 222.797 950.747 222.388C951.274 221.992 951.763 221.514 952.31 221.17C952.322 221.162 952.329 221.146 952.341 221.138C952.637 220.953 952.945 220.806 953.247 220.638C953.268 220.627 953.289 220.618 953.31 220.607C953.509 220.498 953.727 220.439 953.935 220.357C954.019 220.315 954.1 220.273 954.185 220.232C954.803 219.934 955.418 219.64 956.06 219.42C956.448 219.286 956.819 219.117 957.216 219.013C957.226 219.011 957.238 219.016 957.247 219.013C958.548 218.675 961.211 218.081 962.581 218.08L970.543 217.926C978.904 218.346 984.944 219.217 991.755 224.295L991.935 232.42L995.404 232.42L1002.72 232.42L1011.87 232.42L1011.85 219.388C1011.85 219.067 1011.76 222.464 1011.68 218.451C1011.71 217.433 1010.76 212.963 1010.47 212.152C1006.93 202.282 988.845 201.615 966.122 201.615Z" fill="#000000" fill-rule="nonzero" opacity="1" stroke="#000000" stroke-linecap="butt" stroke-linejoin="round" stroke-width="2" vectornator:layerName="C"/>
<path d="M1077.18 199.828C1065.32 199.866 1054.66 200.862 1046.8 203.265C1045.53 203.653 1044.48 204.15 1043.36 204.609C1042.41 205.036 1041.38 205.401 1040.55 205.89C1040.54 205.897 1040.53 205.914 1040.52 205.921C1040.51 205.933 1040.5 205.944 1040.49 205.953C1040.47 205.965 1040.45 205.971 1040.43 205.984C1040.39 206.004 1040.36 206.026 1040.33 206.046C1040.31 206.059 1040.29 206.065 1040.27 206.078C1036.13 208.614 1033.69 211.985 1033.3 216.265C1033.27 216.583 1033.11 216.881 1033.11 217.203L1032.96 236.578L1032.71 273.203L1032.61 284.64C1032.61 284.755 1032.64 285.382 1032.64 285.796C1032.67 285.17 1032.74 284.127 1032.8 287.171C1032.78 288.104 1033.57 291.693 1033.93 292.953C1033.94 292.97 1033.91 292.998 1033.93 293.015C1033.93 293.022 1033.92 293.039 1033.93 293.046C1033.93 293.059 1033.95 293.065 1033.96 293.078C1034.45 294.008 1035.12 294.852 1035.89 295.64C1035.91 295.651 1035.92 295.661 1035.93 295.671C1036.08 295.826 1036.26 295.96 1036.43 296.109C1036.44 296.119 1036.45 296.13 1036.46 296.14C1036.93 296.574 1037.49 296.968 1038.05 297.359C1038.06 297.366 1038.07 297.383 1038.08 297.39C1039.47 298.356 1041.02 299.233 1042.89 299.953C1044.58 300.6 1046.58 301.109 1048.61 301.578C1051.73 302.295 1055.12 302.872 1058.96 303.234C1063.19 303.633 1067.82 303.83 1072.77 303.89C1073.09 303.893 1073.35 303.919 1073.68 303.921C1074.6 303.927 1075.42 303.981 1076.36 303.984C1076.37 303.984 1076.39 303.984 1076.39 303.984C1076.73 303.983 1077 303.924 1077.33 303.921C1077.76 303.918 1078.13 303.865 1078.55 303.859C1082.54 303.801 1086.31 303.599 1089.93 303.296C1090.33 303.262 1090.8 303.272 1091.21 303.234C1093.89 302.992 1096.45 302.698 1098.86 302.296C1099.08 302.259 1099.33 302.242 1099.55 302.203C1099.75 302.167 1099.98 302.145 1100.18 302.109C1100.22 302.1 1100.26 302.086 1100.3 302.078C1102.58 301.646 1104.71 301.146 1106.68 300.546C1107.9 300.171 1108.93 299.678 1110.02 299.234C1111.03 298.786 1112.12 298.376 1112.99 297.859C1117.29 295.305 1119.78 291.918 1120.18 287.546C1120.2 287.229 1120.36 286.931 1120.36 286.609L1120.52 267.234L1120.8 230.609L1120.86 221.828L1120.86 218.015C1120.84 218.641 1120.77 219.686 1120.71 216.64C1120.73 215.698 1119.93 212.014 1119.58 210.796C1115.28 202.572 1100.13 200.012 1079.68 199.859C1079.61 199.859 1079.55 199.86 1079.49 199.859C1078.69 199.854 1077.99 199.83 1077.18 199.828ZM1073.93 216.703C1075.73 216.703 1077.46 216.938 1079.18 217.265C1088.56 219.056 1096.33 219.896 1100.89 228.453C1100.9 228.461 1100.89 228.475 1100.89 228.484C1101.06 228.782 1101.28 229.005 1101.43 229.328C1101.6 229.705 1101.67 230.211 1101.83 230.609C1103.58 234.875 1104.58 240.152 1104.8 244.984C1104.83 245.598 1105.24 251.299 1105.24 251.921C1105.24 252.551 1105.11 253.143 1105.08 253.765C1105.08 253.776 1105.08 253.785 1105.08 253.796C1105.12 254.565 1105.24 255.295 1105.24 256.078C1105.24 258.182 1105.08 260.246 1104.8 262.234C1104.68 263.099 1104.44 263.897 1104.27 264.734C1104.17 265.145 1104.12 265.574 1104.02 265.984C1103.92 266.397 1103.83 266.814 1103.74 267.234C1103.69 267.485 1103.65 267.745 1103.58 267.984C1103.57 268.016 1103.56 268.045 1103.55 268.078C1103.55 268.087 1103.55 268.099 1103.55 268.109C1103.54 268.132 1103.52 268.148 1103.52 268.171C1103.48 268.292 1103.43 268.395 1103.39 268.515C1103.38 268.57 1103.35 268.617 1103.33 268.671C1103.11 269.382 1102.8 270.023 1102.55 270.703C1102.26 271.448 1102.04 272.241 1101.71 272.953C1101.69 272.996 1101.67 273.035 1101.64 273.078C1101.46 273.471 1101.25 273.823 1101.05 274.203C1101.05 274.211 1101.06 274.226 1101.05 274.234C1101.02 274.289 1100.99 274.339 1100.96 274.39C1100.95 274.402 1100.93 274.408 1100.93 274.421C1100.4 275.428 1099.84 276.387 1099.24 277.296C1099 277.65 1098.8 278.021 1098.55 278.359C1098.54 278.37 1098.53 278.378 1098.52 278.39C1097.61 279.633 1096.66 280.788 1095.61 281.796C1095.6 281.807 1095.59 281.817 1095.58 281.828C1095.54 281.864 1095.49 281.885 1095.46 281.921C1095.42 281.958 1095.37 281.979 1095.33 282.015C1095.1 282.234 1094.84 282.394 1094.58 282.578C1094.56 282.591 1094.54 282.596 1094.52 282.609C1090.07 285.383 1085.04 287.109 1079.58 287.109C1077.78 287.109 1076.05 286.874 1074.33 286.546C1064.96 284.757 1057.17 283.925 1052.61 275.39C1052.61 275.382 1052.62 275.367 1052.61 275.359C1052.45 275.049 1052.24 274.815 1052.08 274.484C1051.9 274.107 1051.84 273.601 1051.68 273.203C1049.93 268.937 1048.93 263.661 1048.71 258.828C1048.68 258.214 1048.27 252.512 1048.27 251.89C1048.27 251.261 1048.4 250.668 1048.43 250.046C1048.43 250.036 1048.43 250.026 1048.43 250.015C1048.39 249.246 1048.27 248.517 1048.27 247.734C1048.27 245.629 1048.43 243.566 1048.71 241.578C1048.83 240.713 1049.07 239.916 1049.24 239.078C1049.33 238.667 1049.39 238.238 1049.49 237.828C1049.59 237.415 1049.68 236.997 1049.77 236.578C1049.82 236.326 1049.85 236.066 1049.93 235.828C1049.94 235.795 1049.95 235.766 1049.96 235.734C1049.96 235.724 1049.96 235.712 1049.96 235.703C1049.96 235.68 1049.98 235.663 1049.99 235.64C1050.02 235.52 1050.07 235.417 1050.11 235.296C1050.13 235.242 1050.16 235.195 1050.18 235.14C1050.4 234.43 1050.71 233.789 1050.96 233.109C1051.25 232.364 1051.47 231.57 1051.8 230.859C1051.82 230.816 1051.84 230.776 1051.86 230.734C1052.05 230.341 1052.26 229.989 1052.46 229.609C1052.46 229.601 1052.45 229.585 1052.46 229.578C1052.48 229.53 1052.52 229.495 1052.55 229.453C1052.56 229.434 1052.57 229.411 1052.58 229.39C1053.11 228.383 1053.67 227.425 1054.27 226.515C1054.5 226.161 1054.71 225.791 1054.96 225.453C1054.97 225.441 1054.98 225.433 1054.99 225.421C1055.9 224.178 1056.84 223.024 1057.89 222.015C1057.91 222.005 1057.92 221.994 1057.93 221.984C1057.96 221.947 1058.01 221.927 1058.05 221.89C1058.09 221.854 1058.14 221.832 1058.18 221.796C1058.43 221.558 1058.71 221.371 1058.99 221.171C1059.02 221.152 1059.05 221.128 1059.08 221.109C1063.51 218.373 1068.52 216.703 1073.93 216.703Z" fill="#000000" fill-rule="nonzero" opacity="1" stroke="#000000" stroke-linecap="butt" stroke-linejoin="round" stroke-width="2" vectornator:layerName="O"/>
</g>
</svg>
