<?xml version="1.0" encoding="UTF-8" standalone="no"?>
<!DOCTYPE svg PUBLIC "-//W3C//DTD SVG 1.1//EN" "http://www.w3.org/Graphics/SVG/1.1/DTD/svg11.dtd">
<!-- Created with Vectornator (http://vectornator.io/) -->
<svg height="100%" stroke-miterlimit="10" style="fill-rule:nonzero;clip-rule:evenodd;stroke-linecap:round;stroke-linejoin:round;" version="1.1" viewBox="0 0 842 596" width="100%" xml:space="preserve" xmlns="http://www.w3.org/2000/svg" xmlns:vectornator="http://vectornator.io" xmlns:xlink="http://www.w3.org/1999/xlink">
<defs/>
<g id="Capa-1" vectornator:layerName="Capa 1">
<path d="M381 112.5C381 118.667 381 124.833 381 131C393.833 131 406.667 131 419.5 131C432.333 131 445.167 131 458 131C458 124.833 458 118.667 458 112.5C458 106.333 458 100.167 458 94C445.167 94 432.333 94 419.5 94C406.667 94 393.833 94 381 94C381 100.167 381 106.333 381 112.5ZM381 265.5C381 301.667 381 337.833 381 374C393.833 374 406.667 374 419.5 374C432.333 374 445.167 374 458 374C458 337.833 458 301.667 458 265.5C458 229.333 458 193.167 458 157C445.167 157 432.333 157 419.5 157C406.667 157 393.833 157 381 157C381 193.167 381 229.333 381 265.5ZM336 194.5C325.333 199.5 315.333 205.333 306 212C296.667 218.667 288.667 225.333 282 232C275.333 238.667 268.667 246.833 262 256.5C255.333 266.167 250 275.5 246 284.5C242 293.5 238.667 304.333 236 317C233.333 329.667 232.167 342.5 232.5 355.5C232.833 368.5 234.333 380.333 237 391C239.667 401.667 244 413 250 425C256 437 262.333 447.167 269 455.5C275.667 463.833 283.667 472 293 480C302.333 488 312.333 495 323 501C333.667 507 345.667 512.167 359 516.5C372.333 520.833 383.833 523.667 393.5 525C403.167 526.333 414.333 526.833 427 526.5C439.667 526.167 451 525 461 523C466 522 471 521 476 520C468.667 512.833 461.333 505.667 454 498.5C439.333 484.167 427.5 477 418.5 477C409.5 477 400.667 476.167 392 474.5C383.333 472.833 375.833 470.833 369.5 468.5C363.167 466.167 356.167 462.833 348.5 458.5C340.833 454.167 332.5 447.833 323.5 439.5C314.5 431.167 308.167 424.333 304.5 419C300.833 413.667 297.5 407.833 294.5 401.5C291.5 395.167 288.833 387 286.5 377C284.167 367 283 358 283 350C283 342 283.667 334.5 285 327.5C286.333 320.5 288.833 312.667 292.5 304C296.167 295.333 300.333 287.667 305 281C309.667 274.333 315.333 267.833 322 261.5C328.667 255.167 335.5 250 342.5 246C349.5 242 352.833 231.167 352.5 213.5C352.333 204.667 352.167 195.833 352 187C346.667 189.5 341.333 192 336 194.5ZM492 214.5C492 232.167 496.667 244.333 506 251C515.333 257.667 523 264.5 529 271.5C535 278.5 540.333 286.5 545 295.5C549.667 304.5 553 313 555 321C557 329 558.167 337 558.5 345C558.833 353 558.167 361.667 556.5 371C554.833 380.333 552.167 389.167 548.5 397.5C544.833 405.833 541 412.833 537 418.5C533 424.167 537.5 432.833 550.5 444.5C557 450.333 563.5 456.167 570 462C573.5 457.167 577 452.333 580.5 447.5C587.5 437.833 593 428.667 597 420C601 411.333 603.833 404.167 605.5 398.5C607.167 392.833 608.667 386 610 378C611.333 370 612 361 612 351C612 341 611.167 331.333 609.5 322C607.833 312.667 604.333 301.5 599 288.5C593.667 275.5 587.833 264.5 581.5 255.5C575.167 246.5 566.333 236.833 555 226.5C543.667 216.167 534.167 208.667 526.5 204C518.833 199.333 511.167 195.5 503.5 192.5C499.667 191 495.833 189.5 492 188C492 196.833 492 205.667 492 214.5ZM381 424C381 432.333 381 440.667 381 449C390.833 449 400.667 449 410.5 449C430.167 449 459.333 467.5 498 504.5C536.667 541.5 562 554.333 574 543C586 531.667 590 523.667 586 519C582 514.333 560.167 493.167 520.5 455.5C480.833 417.833 447.667 399 421 399C407.667 399 394.333 399 381 399C381 407.333 381 415.667 381 424Z" fill="currentColor" fill-rule="nonzero" opacity="1" stroke="none" vectornator:layerName="Curva 1"/>
</g>
</svg>
