<?xml version="1.0" standalone="no"?>
<!DOCTYPE svg PUBLIC "-//W3C//DTD SVG 20010904//EN"
 "http://www.w3.org/TR/2001/REC-SVG-20010904/DTD/svg10.dtd">
<svg version="1.0" xmlns="http://www.w3.org/2000/svg"
 width="138.000000pt" height="138.000000pt" viewBox="0 0 138.000000 138.000000"
 preserveAspectRatio="xMidYMid meet">
<metadata>
Created by potrace 1.14, written by Peter Selinger 2001-2017
</metadata>
<g transform="translate(0.000000,138.000000) scale(0.100000,-0.100000)"
fill="#000000" stroke="none">
<path d="M489 1136 c-2 -2 -33 -7 -69 -11 -36 -4 -74 -9 -85 -11 -10 -2 -49
-6 -85 -10 -73 -7 -90 -16 -90 -50 0 -26 24 -37 66 -30 55 9 291 37 320 38 23
1 128 -11 154 -17 3 -1 28 -5 55 -9 28 -4 88 -14 135 -22 47 -7 103 -16 125
-19 22 -3 51 -8 65 -10 14 -3 43 -7 65 -10 110 -15 144 -26 151 -48 8 -26 7
-522 -1 -548 -8 -25 -35 -33 -152 -44 -37 -4 -71 -9 -74 -11 -3 -1 -37 -6 -75
-9 -38 -4 -71 -9 -74 -10 -3 -2 -33 -6 -65 -10 -33 -3 -67 -8 -75 -10 -75 -19
-257 -25 -355 -12 -33 5 -71 10 -85 12 -14 2 -57 7 -96 10 -68 7 -73 6 -84
-15 -21 -39 4 -52 125 -65 28 -2 59 -6 70 -9 125 -25 217 -26 361 -6 71 10
149 21 174 24 411 52 413 52 449 86 40 39 42 64 39 383 l-3 269 -36 32 c-30
28 -48 35 -115 45 -43 6 -90 13 -104 16 -25 4 -201 33 -380 61 -95 15 -243 27
-251 20z"/>
<path d="M253 939 c-48 -18 -30 -104 20 -95 12 3 26 5 30 5 4 1 11 11 16 24
16 41 -24 82 -66 66z"/>
<path d="M545 888 c-59 -13 -126 -66 -154 -124 -78 -156 28 -333 203 -340 62
-3 78 2 168 53 l58 32 32 -30 c35 -31 111 -59 163 -59 49 0 117 27 153 61 38
35 63 81 54 96 -15 24 -41 16 -85 -28 -68 -68 -150 -80 -223 -33 -40 27 -43
24 161 138 159 88 164 94 120 152 -35 46 -120 85 -184 86 -76 0 -156 -42 -198
-105 -36 -54 -52 -138 -35 -186 11 -30 10 -31 -51 -67 -76 -45 -146 -55 -198
-29 -68 35 -105 103 -95 173 3 20 5 40 6 44 1 16 56 71 89 87 47 24 124 20
161 -7 45 -34 80 -33 80 3 0 56 -129 104 -225 83z m550 -86 c16 -10 30 -23 30
-30 0 -11 -254 -162 -274 -162 -6 0 -11 18 -11 40 0 136 140 219 255 152z"/>
<path d="M233 639 c-1 -102 2 -190 5 -196 12 -18 49 -24 61 -10 7 9 11 70 12
173 1 241 5 219 -39 219 l-37 0 -2 -186z"/>
</g>
</svg>
